<svg width="40" height="40" viewBox="0 0 40 40" fill="none" xmlns="http://www.w3.org/2000/svg">
<circle cx="20" cy="20" r="20" fill="#EDF0F4"/>
<path d="M13.9771 19.8987C13.9202 20.8871 14.6811 21.7333 15.6695 21.7902C15.705 21.7902 15.7406 21.7902 15.7761 21.7902C16.7717 21.7902 17.5752 20.9867 17.5681 19.9912C17.5681 18.9957 16.7645 18.1922 15.769 18.1993C14.8162 18.1993 14.0269 18.9459 13.9771 19.8987Z" fill="#0033AD"/>
<path d="M7.27863 19.4368C6.95864 19.4155 6.68132 19.6644 6.6671 19.9844C6.65288 20.3043 6.89465 20.5817 7.21463 20.5959C7.53462 20.6172 7.80483 20.3683 7.82616 20.0484C7.84749 19.7284 7.59861 19.4582 7.27863 19.4368Z" fill="#0033AD"/>
<path d="M13.8634 9.4744C14.1479 9.33219 14.2616 8.97665 14.1194 8.69221C13.9772 8.40778 13.6217 8.29401 13.3372 8.43623C13.0528 8.57844 12.939 8.92687 13.0812 9.2113C13.2235 9.50284 13.5719 9.62373 13.8634 9.4744C13.8634 9.4744 13.8563 9.4744 13.8634 9.4744Z" fill="#0033AD"/>
<path d="M15.6835 12.6525C16.1244 12.4321 16.3022 11.8917 16.0817 11.4508C15.8613 11.01 15.3209 10.8322 14.88 11.0526C14.4391 11.2731 14.2614 11.8135 14.4818 12.2543C14.7022 12.6952 15.2427 12.873 15.6835 12.6525Z" fill="#0033AD"/>
<path d="M9.55416 14.8362C9.89548 15.0566 10.3506 14.9642 10.5781 14.6229C10.7986 14.2816 10.7061 13.8265 10.3648 13.5989C10.0235 13.3785 9.56839 13.4709 9.34084 13.8123C9.1133 14.1536 9.21285 14.6158 9.55416 14.8362Z" fill="#0033AD"/>
<path d="M10.6421 19.1167C10.1443 19.0883 9.72478 19.4652 9.69633 19.9629C9.66789 20.4607 10.0448 20.8802 10.5425 20.9087C11.0403 20.9371 11.4598 20.5602 11.4883 20.0625C11.5167 19.5718 11.1398 19.1452 10.6421 19.1167Z" fill="#0033AD"/>
<path d="M9.65364 25.139C9.29099 25.3239 9.14167 25.7648 9.32655 26.1346C9.51143 26.4972 9.9523 26.6465 10.3221 26.4617C10.6847 26.2768 10.834 25.8359 10.6492 25.4661C10.4643 25.1035 10.0163 24.9542 9.65364 25.139Z" fill="#0033AD"/>
<path d="M13.1378 17.2601C13.6284 17.58 14.2826 17.4449 14.5955 16.9543C14.9155 16.4636 14.7804 15.8095 14.2897 15.4966C13.7991 15.1766 13.1449 15.3117 12.832 15.8023C12.512 16.2859 12.6471 16.9401 13.1378 17.2601Z" fill="#0033AD"/>
<path d="M24.1951 12.5815C24.6075 12.8517 25.1693 12.7379 25.4395 12.3255C25.7097 11.9131 25.5959 11.3513 25.1835 11.0811C24.7711 10.8109 24.2093 10.9247 23.9391 11.3371C23.6618 11.7567 23.7756 12.3113 24.1951 12.5815Z" fill="#0033AD"/>
<path d="M26.0297 9.41764C26.3 9.59541 26.6555 9.51719 26.8333 9.24698C27.011 8.97677 26.9328 8.62123 26.6626 8.44346C26.3924 8.26569 26.0369 8.34391 25.8591 8.60701C25.6884 8.87722 25.7666 9.23987 26.0297 9.41764Z" fill="#0033AD"/>
<path d="M24.3305 18.1846C23.3421 18.1277 22.4888 18.8886 22.439 19.877C22.3821 20.8654 23.143 21.7187 24.1314 21.7685C24.167 21.7685 24.2025 21.7685 24.2309 21.7685C25.2193 21.7685 26.0229 20.965 26.0229 19.9694C26.03 19.0237 25.2833 18.2344 24.3305 18.1846Z" fill="#0033AD"/>
<path d="M16.2737 17.1328C16.5795 17.7372 17.1981 18.1212 17.8807 18.1212C18.8691 18.1212 19.6727 17.3177 19.6727 16.3222C19.6727 16.0448 19.6087 15.7675 19.4807 15.5115C19.0327 14.6227 17.9519 14.2671 17.0701 14.7151C16.1813 15.1702 15.8257 16.251 16.2737 17.1328Z" fill="#0033AD"/>
<path d="M30.3461 14.8359C30.7087 14.651 30.8509 14.2031 30.6661 13.8404C30.4812 13.4778 30.0332 13.3355 29.6705 13.5204C29.3079 13.7053 29.1657 14.1462 29.3434 14.5088C29.5354 14.8715 29.9763 15.0208 30.3461 14.8359Z" fill="#0033AD"/>
<path d="M25.7951 15.4047C25.276 15.6678 25.0627 16.3006 25.3257 16.8197C25.5888 17.3388 26.2217 17.5521 26.7408 17.289C27.2599 17.0259 27.4732 16.3931 27.2101 15.874C26.947 15.3549 26.3142 15.1487 25.7951 15.4047Z" fill="#0033AD"/>
<path d="M19.9288 9.14709C20.3342 9.16842 20.6826 8.85555 20.711 8.45023C20.7395 8.04492 20.4195 7.69649 20.0142 7.66804C19.6089 7.64671 19.2604 7.95248 19.232 8.35779C19.2107 8.77022 19.5235 9.11865 19.9288 9.14709Z" fill="#0033AD"/>
<path d="M19.9216 13.7904C20.5047 13.8259 21.0025 13.3779 21.0309 12.7949C21.0665 12.2118 20.6185 11.714 20.0354 11.6856C19.4523 11.65 18.9545 12.098 18.9261 12.6811C18.8977 13.2642 19.3385 13.7619 19.9216 13.7904Z" fill="#0033AD"/>
<path d="M14.2047 24.5705C14.7238 24.3074 14.9371 23.6745 14.674 23.1554C14.4109 22.6363 13.778 22.423 13.2589 22.6861C12.7398 22.9492 12.5265 23.5821 12.7896 24.1011C13.0527 24.6202 13.6856 24.8336 14.2047 24.5705Z" fill="#0033AD"/>
<path d="M20.6043 15.3331C20.0639 16.1651 20.2914 17.2743 21.1234 17.8148C21.9554 18.3552 23.0646 18.1276 23.6051 17.2957C24.1455 16.4637 23.9179 15.3544 23.086 14.814C22.7944 14.622 22.4531 14.5225 22.1047 14.5225C21.5003 14.5225 20.9385 14.8282 20.6043 15.3331Z" fill="#0033AD"/>
<path d="M23.7258 22.8426C23.2778 21.9537 22.197 21.5982 21.3152 22.0462C20.4264 22.4941 20.0708 23.575 20.5188 24.4567C20.9668 25.3456 22.0476 25.7011 22.9294 25.2531C23.8111 24.8123 24.1738 23.7456 23.7329 22.8568C23.7329 22.8497 23.7329 22.8497 23.7258 22.8426Z" fill="#0033AD"/>
<path d="M26.862 22.7144C26.3714 22.3944 25.7172 22.5295 25.4043 23.0201C25.0843 23.5108 25.2194 24.165 25.7101 24.4778C26.2007 24.7978 26.8549 24.6627 27.1678 24.1721C27.4878 23.6885 27.3527 23.0343 26.862 22.7144Z" fill="#0033AD"/>
<path d="M30.3032 20.0195C30.3316 19.5218 29.9548 19.1022 29.457 19.0738C28.9593 19.0453 28.5397 19.4222 28.5113 19.92C28.4828 20.4177 28.8597 20.8373 29.3575 20.8657C29.8481 20.8941 30.2748 20.5102 30.3032 20.0195Z" fill="#0033AD"/>
<path d="M32.785 19.3792C32.465 19.3579 32.1877 19.6068 32.1734 19.9267C32.1592 20.2467 32.401 20.524 32.721 20.5383C33.041 20.5596 33.3112 20.3107 33.3325 19.9907C33.3467 19.6707 33.105 19.4005 32.785 19.3792Z" fill="#0033AD"/>
<path d="M30.4456 25.139C30.1043 24.9185 29.6492 25.011 29.4217 25.3523C29.2013 25.6936 29.2937 26.1487 29.635 26.3762C29.9763 26.5967 30.4314 26.5042 30.659 26.1629C30.8865 25.8216 30.787 25.3594 30.4456 25.139Z" fill="#0033AD"/>
<path d="M13.9628 30.5577C13.6926 30.3799 13.3371 30.4582 13.1593 30.7213C12.9815 30.9915 13.0597 31.347 13.3228 31.5248C13.593 31.7026 13.9486 31.6243 14.1263 31.3612C14.3112 31.0981 14.233 30.7355 13.9628 30.5577Z" fill="#0033AD"/>
<path d="M26.1366 30.5007C25.8521 30.6429 25.7383 30.9985 25.8806 31.2829C26.0228 31.5673 26.3783 31.6811 26.6627 31.5389C26.9472 31.3967 27.061 31.0482 26.9187 30.7638C26.7765 30.4723 26.4281 30.3514 26.1366 30.5007C26.1437 30.5007 26.1366 30.5007 26.1366 30.5007Z" fill="#0033AD"/>
<path d="M19.3956 24.6419C19.936 23.8099 19.7085 22.7007 18.8765 22.1531C18.0445 21.6127 16.9352 21.8403 16.3877 22.6722C15.8402 23.5042 16.0748 24.6135 16.9068 25.161C17.1983 25.353 17.5397 25.4525 17.8881 25.4525C18.4996 25.4596 19.0614 25.1539 19.3956 24.6419Z" fill="#0033AD"/>
<path d="M15.8045 27.3936C15.3921 27.1234 14.8303 27.2372 14.5601 27.6496C14.2899 28.062 14.4037 28.6238 14.8161 28.894C15.2286 29.1642 15.7903 29.0504 16.0605 28.638C16.3378 28.2256 16.2241 27.6638 15.8045 27.3936Z" fill="#0033AD"/>
<path d="M19.9929 30.8282C19.5876 30.8068 19.2392 31.1197 19.2107 31.525C19.1823 31.9304 19.5023 32.2788 19.9076 32.3072C20.3129 32.3286 20.6613 32.0228 20.6898 31.6175C20.7111 31.205 20.3982 30.8566 19.9929 30.8282Z" fill="#0033AD"/>
<path d="M19.9999 26.1846C19.4168 26.149 18.9191 26.597 18.8907 27.1801C18.8551 27.7632 19.3031 28.2609 19.8862 28.2894C20.4692 28.3178 20.967 27.877 20.9954 27.2939C21.031 26.7179 20.583 26.213 19.9999 26.1846Z" fill="#0033AD"/>
<path d="M24.316 27.3223C23.8751 27.5499 23.6974 28.0903 23.9249 28.5312C24.1524 28.972 24.6929 29.1498 25.1337 28.9223C25.5746 28.7018 25.7524 28.1614 25.5319 27.7205C25.3044 27.2797 24.764 27.0948 24.316 27.3223Z" fill="#0033AD"/>
</svg>
