<svg width="40" height="40" viewBox="0 0 40 40" fill="none" xmlns="http://www.w3.org/2000/svg">
<circle cx="20" cy="20" r="20" fill="#EDF0F4"/>
<path d="M13.9756 19.8987C13.9188 20.8871 14.6796 21.7333 15.668 21.7902C15.7036 21.7902 15.7391 21.7902 15.7747 21.7902C16.7702 21.7902 17.5737 20.9867 17.5666 19.9912C17.5666 18.9957 16.7631 18.1922 15.7676 18.1993C14.8147 18.1993 14.0254 18.9459 13.9756 19.8987Z" fill="#0033AD"/>
<path d="M7.27814 19.4368C6.95815 19.4155 6.68083 19.6644 6.66661 19.9844C6.65239 20.3043 6.89416 20.5817 7.21414 20.5959C7.53413 20.6172 7.80434 20.3683 7.82567 20.0484C7.847 19.7284 7.59813 19.4582 7.27814 19.4368V19.4368Z" fill="#0033AD"/>
<path d="M13.8629 9.4744C14.1474 9.33219 14.2611 8.97665 14.1189 8.69221C13.9767 8.40778 13.6212 8.29401 13.3367 8.43623C13.0523 8.57844 12.9385 8.92687 13.0808 9.2113C13.223 9.50284 13.5714 9.62373 13.8629 9.4744C13.8558 9.4744 13.8629 9.4744 13.8629 9.4744Z" fill="#0033AD"/>
<path d="M15.6831 12.6525C16.1239 12.4321 16.3017 11.8917 16.0813 11.4508C15.8608 11.01 15.3204 10.8322 14.8795 11.0526C14.4387 11.2731 14.2609 11.8135 14.4813 12.2543C14.7018 12.6952 15.2422 12.873 15.6831 12.6525Z" fill="#0033AD"/>
<path d="M9.5527 14.8362C9.89402 15.0566 10.3491 14.9642 10.5767 14.6229C10.7971 14.2816 10.7046 13.8265 10.3633 13.5989C10.022 13.3785 9.56692 13.4709 9.33938 13.8123V13.8123C9.11183 14.1536 9.21138 14.6158 9.5527 14.8362Z" fill="#0033AD"/>
<path d="M10.6426 19.1167C10.1448 19.0883 9.72527 19.4652 9.69682 19.9629C9.66838 20.4607 10.0453 20.8802 10.543 20.9087C11.0408 20.9371 11.4603 20.5602 11.4887 20.0625V20.0625C11.5172 19.5718 11.1403 19.1452 10.6426 19.1167Z" fill="#0033AD"/>
<path d="M9.65267 25.139C9.29002 25.3239 9.14069 25.7648 9.32557 26.1346C9.51045 26.4972 9.95132 26.6465 10.3211 26.4617C10.6837 26.2768 10.8331 25.8359 10.6482 25.4661V25.4661C10.4633 25.1035 10.0153 24.9542 9.65267 25.139V25.139Z" fill="#0033AD"/>
<path d="M13.1373 17.2601C13.628 17.58 14.2821 17.4449 14.595 16.9543C14.915 16.4636 14.7799 15.8095 14.2893 15.4966C13.7986 15.1766 13.1444 15.3117 12.8315 15.8023C12.5116 16.2859 12.6467 16.9401 13.1373 17.2601V17.2601Z" fill="#0033AD"/>
<path d="M24.1946 12.5815C24.6071 12.8517 25.1688 12.7379 25.439 12.3255C25.7092 11.9131 25.5955 11.3513 25.183 11.0811C24.7706 10.8109 24.2088 10.9247 23.9386 11.3371V11.3371C23.6613 11.7567 23.7751 12.3113 24.1946 12.5815V12.5815Z" fill="#0033AD"/>
<path d="M26.0288 9.41764C26.299 9.59541 26.6545 9.51719 26.8323 9.24698C27.0101 8.97677 26.9318 8.62123 26.6616 8.44346C26.3914 8.26569 26.0359 8.34391 25.8581 8.60701C25.6875 8.87722 25.7657 9.23987 26.0288 9.41764V9.41764Z" fill="#0033AD"/>
<path d="M24.33 18.1846C23.3416 18.1277 22.4883 18.8886 22.4385 19.877C22.3817 20.8654 23.1425 21.7187 24.1309 21.7685C24.1665 21.7685 24.202 21.7685 24.2305 21.7685C25.2189 21.7685 26.0224 20.965 26.0224 19.9694C26.0295 19.0237 25.2829 18.2344 24.33 18.1846V18.1846Z" fill="#0033AD"/>
<path d="M16.2737 17.1328C16.5795 17.7372 17.1981 18.1212 17.8807 18.1212C18.8691 18.1212 19.6727 17.3177 19.6727 16.3222C19.6727 16.0448 19.6087 15.7675 19.4807 15.5115C19.0327 14.6227 17.9519 14.2671 17.0701 14.7151C16.1813 15.1702 15.8257 16.251 16.2737 17.1328V17.1328Z" fill="#0033AD"/>
<path d="M30.3446 14.8359C30.7073 14.651 30.8495 14.2031 30.6646 13.8404C30.4797 13.4778 30.0317 13.3355 29.6691 13.5204C29.3064 13.7053 29.1642 14.1462 29.342 14.5088C29.534 14.8715 29.9748 15.0208 30.3446 14.8359V14.8359Z" fill="#0033AD"/>
<path d="M25.7951 15.4047C25.276 15.6678 25.0627 16.3006 25.3257 16.8197C25.5888 17.3388 26.2217 17.5521 26.7408 17.289C27.2599 17.0259 27.4732 16.3931 27.2101 15.874C26.947 15.3549 26.3142 15.1487 25.7951 15.4047Z" fill="#0033AD"/>
<path d="M19.9284 9.14709C20.3337 9.16842 20.6821 8.85555 20.7105 8.45023C20.739 8.04492 20.419 7.69649 20.0137 7.66804C19.6084 7.64671 19.2599 7.95248 19.2315 8.35779C19.2102 8.77022 19.523 9.11865 19.9284 9.14709V9.14709Z" fill="#0033AD"/>
<path d="M19.9206 13.7904C20.5037 13.8259 21.0015 13.3779 21.0299 12.7949C21.0655 12.2118 20.6175 11.714 20.0344 11.6856C19.4513 11.65 18.9536 12.098 18.9251 12.6811C18.8967 13.2642 19.3376 13.7619 19.9206 13.7904V13.7904Z" fill="#0033AD"/>
<path d="M14.2037 24.5705C14.7228 24.3074 14.9361 23.6745 14.673 23.1554C14.4099 22.6363 13.777 22.423 13.258 22.6861C12.7389 22.9492 12.5255 23.5821 12.7886 24.1011C13.0517 24.6202 13.6846 24.8336 14.2037 24.5705Z" fill="#0033AD"/>
<path d="M20.6033 15.3331C20.0629 16.1651 20.2905 17.2743 21.1224 17.8148C21.9544 18.3552 23.0637 18.1276 23.6041 17.2957C24.1445 16.4637 23.917 15.3544 23.085 14.814C22.7935 14.622 22.4521 14.5225 22.1037 14.5225C21.4993 14.5225 20.9375 14.8282 20.6033 15.3331Z" fill="#0033AD"/>
<path d="M23.7248 22.8426C23.2768 21.9537 22.196 21.5982 21.3143 22.0462C20.4254 22.4941 20.0699 23.575 20.5178 24.4567C20.9658 25.3456 22.0467 25.7011 22.9284 25.2531V25.2531C23.8101 24.8123 24.1728 23.7456 23.7319 22.8568C23.7319 22.8497 23.7319 22.8497 23.7248 22.8426Z" fill="#0033AD"/>
<path d="M26.8615 22.7144C26.3709 22.3944 25.7167 22.5295 25.4038 23.0201C25.0838 23.5108 25.2189 24.165 25.7096 24.4778C26.2002 24.7978 26.8544 24.6627 27.1673 24.1721C27.4873 23.6885 27.3522 23.0343 26.8615 22.7144V22.7144Z" fill="#0033AD"/>
<path d="M30.3032 20.0195C30.3316 19.5218 29.9548 19.1022 29.457 19.0738C28.9593 19.0453 28.5397 19.4222 28.5113 19.92C28.4828 20.4177 28.8597 20.8373 29.3575 20.8657V20.8657C29.8481 20.8941 30.2748 20.5102 30.3032 20.0195Z" fill="#0033AD"/>
<path d="M32.784 19.3792C32.464 19.3579 32.1867 19.6068 32.1725 19.9267C32.1582 20.2467 32.4 20.524 32.72 20.5383C33.04 20.5596 33.3102 20.3107 33.3315 19.9907C33.3458 19.6707 33.104 19.4005 32.784 19.3792Z" fill="#0033AD"/>
<path d="M30.4442 25.139C30.1029 24.9185 29.6478 25.011 29.4202 25.3523C29.1998 25.6936 29.2922 26.1487 29.6335 26.3762C29.9749 26.5967 30.43 26.5042 30.6575 26.1629C30.885 25.8216 30.7855 25.3594 30.4442 25.139V25.139Z" fill="#0033AD"/>
<path d="M13.9618 30.5577C13.6916 30.3799 13.3361 30.4582 13.1583 30.7213C12.9805 30.9915 13.0588 31.347 13.3219 31.5248C13.5921 31.7026 13.9476 31.6243 14.1254 31.3612V31.3612C14.3103 31.0981 14.232 30.7355 13.9618 30.5577Z" fill="#0033AD"/>
<path d="M26.1356 30.5007C25.8511 30.6429 25.7374 30.9985 25.8796 31.2829C26.0218 31.5673 26.3773 31.6811 26.6618 31.5389C26.9462 31.3967 27.06 31.0482 26.9178 30.7638C26.7755 30.4723 26.4271 30.3514 26.1356 30.5007C26.1427 30.5007 26.1356 30.5007 26.1356 30.5007Z" fill="#0033AD"/>
<path d="M19.3956 24.6419C19.936 23.8099 19.7085 22.7007 18.8765 22.1531C18.0445 21.6127 16.9352 21.8403 16.3877 22.6722C15.8402 23.5042 16.0748 24.6135 16.9068 25.161C17.1983 25.353 17.5397 25.4525 17.8881 25.4525C18.4996 25.4596 19.0614 25.1539 19.3956 24.6419Z" fill="#0033AD"/>
<path d="M15.8031 27.3936C15.3906 27.1234 14.8289 27.2372 14.5587 27.6496C14.2885 28.062 14.4022 28.6238 14.8147 28.894C15.2271 29.1642 15.7888 29.0504 16.0591 28.638V28.638C16.3364 28.2256 16.2226 27.6638 15.8031 27.3936Z" fill="#0033AD"/>
<path d="M19.9929 30.8282C19.5876 30.8068 19.2392 31.1197 19.2107 31.525C19.1823 31.9304 19.5023 32.2788 19.9076 32.3072C20.3129 32.3286 20.6613 32.0228 20.6898 31.6175C20.7111 31.205 20.3982 30.8566 19.9929 30.8282V30.8282Z" fill="#0033AD"/>
<path d="M19.9999 26.1846C19.4168 26.149 18.9191 26.597 18.8907 27.1801C18.8551 27.7632 19.3031 28.2609 19.8862 28.2894C20.4692 28.3178 20.967 27.877 20.9954 27.2939C21.031 26.7179 20.583 26.213 19.9999 26.1846V26.1846Z" fill="#0033AD"/>
<path d="M24.3165 27.3223C23.8756 27.5499 23.6978 28.0903 23.9254 28.5312C24.1529 28.972 24.6933 29.1498 25.1342 28.9223C25.5751 28.7018 25.7529 28.1614 25.5324 27.7205C25.3049 27.2797 24.7645 27.0948 24.3165 27.3223V27.3223Z" fill="#0033AD"/>
</svg>
