<svg width="24" height="24" viewBox="0 0 24 24" fill="none" xmlns="http://www.w3.org/2000/svg">
<circle cx="12" cy="12" r="12" fill="#EDF0F4"/>
<path d="M8.38607 11.9387C8.35194 12.5317 8.80845 13.0394 9.40149 13.0735C9.42283 13.0735 9.44416 13.0735 9.46549 13.0735C10.0628 13.0735 10.5449 12.5914 10.5406 11.9941C10.5406 11.3968 10.0585 10.9147 9.46123 10.919C8.88952 10.919 8.41594 11.367 8.38607 11.9387Z" fill="#0033AD"/>
<path d="M4.36727 11.6609C4.17528 11.6481 4.00889 11.7974 4.00036 11.9894C3.99182 12.1814 4.13689 12.3478 4.32888 12.3564C4.52087 12.3692 4.68299 12.2198 4.69579 12.0278C4.70859 11.8358 4.55927 11.6737 4.36727 11.6609Z" fill="#0033AD"/>
<path d="M8.31806 5.68405C8.48872 5.59873 8.55698 5.3854 8.47165 5.21474C8.38632 5.04408 8.173 4.97582 8.00234 5.06115C7.83168 5.14648 7.76342 5.35554 7.84875 5.5262C7.93408 5.70112 8.14313 5.77365 8.31806 5.68405C8.31806 5.68405 8.31379 5.68405 8.31806 5.68405Z" fill="#0033AD"/>
<path d="M9.41012 7.59094C9.67464 7.45868 9.78131 7.13443 9.64905 6.86991C9.51679 6.60538 9.19253 6.49872 8.92801 6.63098C8.66349 6.76324 8.55683 7.0875 8.68909 7.35202C8.82135 7.61654 9.1456 7.7232 9.41012 7.59094Z" fill="#0033AD"/>
<path d="M5.7323 8.90095C5.93709 9.03321 6.21015 8.97774 6.34668 8.77295C6.47894 8.56816 6.42347 8.29511 6.21868 8.15858C6.01389 8.02632 5.74084 8.08178 5.60431 8.28657C5.46778 8.49136 5.52751 8.76868 5.7323 8.90095Z" fill="#0033AD"/>
<path d="M6.38524 11.4697C6.08659 11.4526 5.83487 11.6787 5.8178 11.9774C5.80073 12.276 6.02686 12.5277 6.32551 12.5448C6.62416 12.5619 6.87589 12.3358 6.89295 12.0371C6.91002 11.7427 6.68389 11.4867 6.38524 11.4697Z" fill="#0033AD"/>
<path d="M5.79228 15.0828C5.57469 15.1938 5.4851 15.4583 5.59603 15.6801C5.70695 15.8977 5.97148 15.9873 6.19333 15.8764C6.41092 15.7655 6.50052 15.501 6.38959 15.2791C6.27866 15.0615 6.00987 14.9719 5.79228 15.0828Z" fill="#0033AD"/>
<path d="M7.88268 10.3554C8.17706 10.5474 8.56958 10.4664 8.7573 10.172C8.9493 9.8776 8.86823 9.48509 8.57385 9.29736C8.27946 9.10537 7.88694 9.18643 7.69922 9.48082C7.50723 9.77094 7.58829 10.1635 7.88268 10.3554Z" fill="#0033AD"/>
<path d="M14.5175 7.54871C14.7649 7.71084 15.102 7.64257 15.2641 7.39512C15.4262 7.14766 15.358 6.81061 15.1105 6.64849C14.863 6.48636 14.526 6.55462 14.3639 6.80208C14.1975 7.0538 14.2657 7.38659 14.5175 7.54871Z" fill="#0033AD"/>
<path d="M15.6181 5.6498C15.7803 5.75646 15.9936 5.70953 16.1003 5.54741C16.2069 5.38528 16.16 5.17196 15.9979 5.06529C15.8357 4.95863 15.6224 5.00556 15.5157 5.16342C15.4134 5.32555 15.4603 5.54314 15.6181 5.6498Z" fill="#0033AD"/>
<path d="M14.5981 10.91C14.0051 10.8759 13.4931 11.3324 13.4632 11.9254C13.4291 12.5185 13.8856 13.0304 14.4786 13.0603C14.5 13.0603 14.5213 13.0603 14.5384 13.0603C15.1314 13.0603 15.6135 12.5782 15.6135 11.9809C15.6178 11.4134 15.1698 10.9399 14.5981 10.91Z" fill="#0033AD"/>
<path d="M9.76413 10.2787C9.94758 10.6413 10.3188 10.8717 10.7283 10.8717C11.3214 10.8717 11.8035 10.3896 11.8035 9.79231C11.8035 9.62592 11.7651 9.45953 11.6883 9.30594C11.4195 8.77263 10.771 8.5593 10.242 8.82809C9.70866 9.10114 9.49534 9.74965 9.76413 10.2787Z" fill="#0033AD"/>
<path d="M18.2074 8.90038C18.425 8.78945 18.5104 8.52066 18.3994 8.30307C18.2885 8.08548 18.0197 8.00015 17.8021 8.11108C17.5845 8.22201 17.4992 8.48653 17.6059 8.70412C17.7211 8.92171 17.9856 9.01131 18.2074 8.90038Z" fill="#0033AD"/>
<path d="M15.4772 9.2426C15.1658 9.40046 15.0378 9.78018 15.1956 10.0916C15.3535 10.4031 15.7332 10.5311 16.0447 10.3732C16.3561 10.2154 16.4841 9.83564 16.3263 9.52419C16.1684 9.21274 15.7887 9.08901 15.4772 9.2426Z" fill="#0033AD"/>
<path d="M11.9573 5.48767C12.2005 5.50047 12.4096 5.31274 12.4266 5.06955C12.4437 4.82636 12.2517 4.61731 12.0085 4.60024C11.7653 4.58744 11.5563 4.7709 11.5392 5.01409C11.5264 5.26154 11.7141 5.4706 11.9573 5.48767Z" fill="#0033AD"/>
<path d="M11.9531 8.27383C12.3029 8.29516 12.6016 8.02637 12.6186 7.67652C12.64 7.32667 12.3712 7.02802 12.0213 7.01095C11.6715 6.98962 11.3728 7.25841 11.3558 7.60826C11.3387 7.95811 11.6032 8.25676 11.9531 8.27383Z" fill="#0033AD"/>
<path d="M8.5227 14.7413C8.83415 14.5834 8.96215 14.2037 8.80429 13.8923C8.64643 13.5808 8.26671 13.4528 7.95526 13.6107C7.64381 13.7685 7.51581 14.1483 7.67367 14.4597C7.83153 14.7712 8.21125 14.8992 8.5227 14.7413Z" fill="#0033AD"/>
<path d="M12.3627 9.19927C12.0384 9.69845 12.175 10.364 12.6741 10.6883C13.1733 11.0125 13.8389 10.876 14.1631 10.3768C14.4874 9.87764 14.3509 9.21207 13.8517 8.88782C13.6768 8.77262 13.472 8.71289 13.2629 8.71289C12.9003 8.71289 12.5632 8.89635 12.3627 9.19927Z" fill="#0033AD"/>
<path d="M14.2357 13.7053C13.9669 13.172 13.3184 12.9587 12.7893 13.2275C12.256 13.4963 12.0427 14.1448 12.3115 14.6738C12.5803 15.2071 13.2288 15.4205 13.7578 15.1517C14.2869 14.8872 14.5045 14.2472 14.2399 13.7139C14.2399 13.7096 14.2399 13.7096 14.2357 13.7053Z" fill="#0033AD"/>
<path d="M16.1173 13.6284C15.8229 13.4364 15.4304 13.5175 15.2427 13.8119C15.0507 14.1063 15.1317 14.4988 15.4261 14.6865C15.7205 14.8785 16.113 14.7974 16.3008 14.503C16.4928 14.2129 16.4117 13.8204 16.1173 13.6284Z" fill="#0033AD"/>
<path d="M18.182 12.0107C18.1991 11.7121 17.973 11.4604 17.6743 11.4433C17.3757 11.4262 17.1239 11.6523 17.1069 11.951C17.0898 12.2497 17.3159 12.5014 17.6146 12.5184C17.909 12.5355 18.1649 12.3051 18.182 12.0107Z" fill="#0033AD"/>
<path d="M19.671 11.6267C19.479 11.6139 19.3126 11.7633 19.3041 11.9553C19.2955 12.1473 19.4406 12.3136 19.6326 12.3222C19.8246 12.335 19.9867 12.1857 19.9995 11.9937C20.008 11.8017 19.863 11.6395 19.671 11.6267Z" fill="#0033AD"/>
<path d="M18.2676 15.0834C18.0628 14.9511 17.7897 15.0066 17.6532 15.2114C17.5209 15.4162 17.5764 15.6892 17.7812 15.8257C17.986 15.958 18.259 15.9025 18.3956 15.6978C18.5321 15.493 18.4724 15.2156 18.2676 15.0834Z" fill="#0033AD"/>
<path d="M8.37748 18.3338C8.21536 18.2272 8.00203 18.2741 7.89537 18.432C7.78871 18.5941 7.83564 18.8074 7.9935 18.9141C8.15563 19.0208 8.36895 18.9738 8.47561 18.816C8.58654 18.6581 8.53961 18.4405 8.37748 18.3338Z" fill="#0033AD"/>
<path d="M15.682 18.3002C15.5114 18.3856 15.4431 18.5989 15.5284 18.7695C15.6138 18.9402 15.8271 19.0085 15.9977 18.9231C16.1684 18.8378 16.2367 18.6287 16.1513 18.4581C16.066 18.2832 15.857 18.2106 15.682 18.3002C15.6863 18.3002 15.682 18.3002 15.682 18.3002Z" fill="#0033AD"/>
<path d="M11.6375 14.7842C11.9618 14.285 11.8253 13.6194 11.3261 13.2909C10.8269 12.9666 10.1613 13.1032 9.83282 13.6024C9.50431 14.1015 9.6451 14.7671 10.1443 15.0956C10.3192 15.2108 10.524 15.2705 10.7331 15.2705C11.1 15.2748 11.437 15.0914 11.6375 14.7842Z" fill="#0033AD"/>
<path d="M9.48252 16.4356C9.23507 16.2735 8.89801 16.3417 8.73589 16.5892C8.57376 16.8366 8.64203 17.1737 8.88948 17.3358C9.13694 17.4979 9.47399 17.4297 9.63611 17.1822C9.80251 16.9348 9.73424 16.5977 9.48252 16.4356Z" fill="#0033AD"/>
<path d="M11.9958 18.4957C11.7526 18.4829 11.5435 18.6707 11.5264 18.9138C11.5094 19.157 11.7014 19.3661 11.9446 19.3832C12.1878 19.396 12.3968 19.2125 12.4139 18.9693C12.4267 18.7219 12.2389 18.5128 11.9958 18.4957Z" fill="#0033AD"/>
<path d="M11.9998 15.7102C11.6499 15.6888 11.3513 15.9576 11.3342 16.3075C11.3129 16.6573 11.5817 16.956 11.9315 16.973C12.2814 16.9901 12.58 16.7256 12.5971 16.3757C12.6184 16.0302 12.3496 15.7272 11.9998 15.7102Z" fill="#0033AD"/>
<path d="M14.5896 16.3926C14.3251 16.5291 14.2184 16.8534 14.3549 17.1179C14.4915 17.3824 14.8157 17.4891 15.0802 17.3526C15.3448 17.2203 15.4514 16.8961 15.3192 16.6315C15.1826 16.367 14.8584 16.2561 14.5896 16.3926Z" fill="#0033AD"/>
</svg>
