<svg width="40" height="40" viewBox="0 0 40 40" fill="none" xmlns="http://www.w3.org/2000/svg">
<circle cx="20" cy="20" r="20" fill="#E84142"/>
<path fill-rule="evenodd" clip-rule="evenodd" d="M21.1967 5.9367C20.5038 4.73985 19.4014 4.73985 18.7085 5.9367L6.12581 28.0942C5.4329 29.3068 5.99982 30.2674 7.38565 30.2674H13.7006C14.9762 30.1887 16.1258 29.5115 16.8187 28.4406L24.425 15.2595C24.9762 14.1257 24.9762 12.7871 24.425 11.6532L22.1573 7.66898L21.1967 5.9367ZM29.5589 20.5194C28.866 19.3225 27.7479 19.3225 27.055 20.5194L22.6613 28.0942C21.9841 29.291 22.551 30.2674 23.9211 30.2674H32.614C33.9999 30.2674 34.5668 29.291 33.8739 28.0942L29.5589 20.5194Z" fill="white"/>
</svg>
