<svg width="24" height="24" viewBox="0 0 24 24" fill="none" xmlns="http://www.w3.org/2000/svg">
<circle cx="12" cy="12" r="12" fill="#E84142"/>
<path fill-rule="evenodd" clip-rule="evenodd" d="M12.718 3.56202C12.3023 2.84391 11.6408 2.84391 11.2251 3.56202L3.67549 16.8565C3.25974 17.5841 3.59989 18.1604 4.43139 18.1604H8.22037C8.98572 18.1132 9.67549 17.7069 10.0912 17.0644L14.655 9.15572C14.9857 8.47541 14.9857 7.67226 14.655 6.99194L13.2944 4.60139L12.718 3.56202ZM17.7353 12.3116C17.3196 11.5935 16.6487 11.5935 16.233 12.3116L13.5967 16.8565C13.1904 17.5746 13.5306 18.1604 14.3526 18.1604H19.5684C20.3999 18.1604 20.74 17.5746 20.3243 16.8565L17.7353 12.3116Z" fill="white"/>
</svg>
