<svg width="41" height="41" viewBox="0 0 41 41" fill="none" xmlns="http://www.w3.org/2000/svg">
<path d="M39.4149 24.8493C36.7426 35.5686 25.8857 42.0921 15.1652 39.419C4.44923 36.7467 -2.07428 25.8892 0.599241 15.1708C3.27042 4.45039 14.1273 -2.07361 24.8444 0.598739C35.5642 3.27109 42.0873 14.1298 39.4146 24.8495L39.4148 24.8493H39.4149Z" fill="#F7931A"/>
<path fill-rule="evenodd" clip-rule="evenodd" d="M28.8298 17.1581C29.228 14.4953 27.2008 13.064 24.4287 12.1091L25.328 8.50219L23.1323 7.95508L22.2569 11.4671C21.6797 11.3231 21.0869 11.1875 20.4977 11.053L21.3795 7.51781L19.1852 6.9707L18.2854 10.5765C17.8078 10.4677 17.3386 10.3602 16.8834 10.247L16.886 10.2356L13.8581 9.47953L13.274 11.8246C13.274 11.8246 14.903 12.198 14.8687 12.221C15.7578 12.4429 15.9186 13.0315 15.8919 13.498L14.8675 17.6072C14.9288 17.6227 15.0082 17.6452 15.0958 17.6805L15.032 17.6645C14.9779 17.651 14.9215 17.6369 14.8637 17.623L13.4279 23.3794C13.3192 23.6495 13.0434 24.0549 12.4218 23.901C12.4438 23.9329 10.8259 23.5027 10.8259 23.5027L9.73584 26.016L12.5931 26.7283C12.9059 26.8068 13.2151 26.8874 13.521 26.9671L13.5213 26.9672L13.5216 26.9673C13.7354 27.023 13.9476 27.0783 14.1586 27.1323L13.25 30.7806L15.4431 31.3277L16.3429 27.7181C16.942 27.8807 17.5234 28.0308 18.0927 28.1722L17.1959 31.7648L19.3917 32.3119L20.3002 28.6704C24.0442 29.379 26.8595 29.0933 28.0444 25.7068C28.9993 22.9803 27.9969 21.4076 26.0272 20.382C27.4618 20.0512 28.5424 19.1076 28.8306 17.1584L28.8299 17.1579L28.8298 17.1581ZM23.8132 24.1926C23.1907 26.6941 19.2751 25.6599 17.4836 25.1868L17.4836 25.1868C17.3224 25.1442 17.1785 25.1062 17.0557 25.0757L18.2614 20.2423C18.4111 20.2797 18.594 20.3207 18.8013 20.3672C20.6543 20.7831 24.4511 21.6351 23.8133 24.1926H23.8132ZM19.1729 18.124C20.6665 18.5226 23.9247 19.3921 24.4922 17.1186H24.4924C25.0718 14.7933 21.9053 14.0922 20.3588 13.7498C20.1848 13.7113 20.0314 13.6773 19.906 13.6461L18.8129 18.0297C18.9161 18.0554 19.0372 18.0878 19.1729 18.124Z" fill="white"/>
</svg>
