<svg width="41" height="41" viewBox="0 0 41 41" fill="none" xmlns="http://www.w3.org/2000/svg">
<path d="M39.4149 24.8493C36.7426 35.5685 25.8857 42.0921 15.1652 39.419C4.44923 36.7467 -2.07428 25.8892 0.599241 15.1708C3.27042 4.45039 14.1273 -2.07361 24.8444 0.598739C35.5642 3.27109 42.0873 14.1298 39.4146 24.8495L39.4148 24.8493H39.4149Z" fill="#F7931A"/>
<path fill-rule="evenodd" clip-rule="evenodd" d="M28.8303 17.1581C29.2285 14.4953 27.2013 13.064 24.4292 12.1091L25.3285 8.50219L23.1328 7.95508L22.2574 11.4671C21.6801 11.3231 21.0874 11.1875 20.4982 11.053L21.38 7.51781L19.1857 6.9707L18.2859 10.5765C17.8082 10.4677 17.3391 10.3602 16.8839 10.247L16.8865 10.2356L13.8586 9.47953L13.2745 11.8246C13.2745 11.8246 14.9035 12.198 14.8692 12.221C15.7583 12.4429 15.9191 13.0315 15.8924 13.498L14.868 17.6072C14.9292 17.6227 15.0087 17.6452 15.0963 17.6805L15.0325 17.6645C14.9783 17.651 14.922 17.6369 14.8642 17.623L13.4284 23.3794C13.3197 23.6495 13.0439 24.0549 12.4223 23.901C12.4443 23.9329 10.8264 23.5027 10.8264 23.5027L9.73633 26.016L12.5936 26.7283C12.9064 26.8068 13.2155 26.8874 13.5215 26.9671L13.5218 26.9672L13.5221 26.9673C13.7359 27.023 13.9481 27.0783 14.159 27.1323L13.2505 30.7806L15.4436 31.3277L16.3434 27.7181C16.9425 27.8807 17.5239 28.0308 18.0931 28.1722L17.1964 31.7648L19.3922 32.3119L20.3006 28.6704C24.0447 29.379 26.86 29.0933 28.0449 25.7068C28.9998 22.9803 27.9974 21.4076 26.0277 20.382C27.4623 20.0512 28.5429 19.1076 28.8311 17.1584L28.8304 17.1579L28.8303 17.1581ZM23.8137 24.1926C23.1911 26.6941 19.2756 25.6599 17.4841 25.1868L17.4841 25.1868C17.3229 25.1442 17.179 25.1062 17.0561 25.0757L18.2619 20.2423C18.4116 20.2797 18.5945 20.3207 18.8017 20.3672C20.6548 20.7831 24.4515 21.6351 23.8138 24.1926H23.8137ZM19.1734 18.124C20.667 18.5226 23.9252 19.3921 24.4927 17.1186H24.4929C25.0723 14.7933 21.9058 14.0922 20.3593 13.7498C20.1853 13.7113 20.0318 13.6773 19.9065 13.6461L18.8134 18.0297C18.9166 18.0554 19.0377 18.0878 19.1734 18.124Z" fill="white"/>
</svg>
