<svg width="25" height="25" viewBox="0 0 25 25" fill="none" xmlns="http://www.w3.org/2000/svg">
<path d="M23.6561 14.9141C22.0522 21.3476 15.5361 25.2628 9.10188 23.6585C2.67034 22.0546 -1.24494 15.5382 0.359653 9.10522C1.96284 2.67104 8.47891 -1.24454 14.9112 0.359351C21.3449 1.96324 25.26 8.48043 23.6559 14.9142L23.656 14.9141H23.6561Z" fill="#F7931A"/>
<path fill-rule="evenodd" clip-rule="evenodd" d="M17.3021 10.2979C17.5411 8.69972 16.3244 7.84066 14.6606 7.26758L15.2004 5.10276L13.8826 4.7744L13.3572 6.88222C13.0107 6.79582 12.655 6.7144 12.3014 6.63369L12.8306 4.51196L11.5136 4.18359L10.9736 6.34771C10.6869 6.28244 10.4053 6.21793 10.1321 6.14995L10.1337 6.14314L8.31639 5.68934L7.96584 7.09683C7.96584 7.09683 8.94353 7.32094 8.92293 7.33474C9.45656 7.46792 9.55306 7.82118 9.53704 8.10117L8.92223 10.5674C8.95897 10.5767 9.00663 10.5902 9.05923 10.6114L9.02091 10.6018C8.98841 10.5937 8.95462 10.5852 8.91994 10.5769L8.05817 14.0318C7.99296 14.1939 7.82743 14.4372 7.45434 14.3448C7.46754 14.3639 6.49654 14.1058 6.49654 14.1058L5.84229 15.6142L7.55718 16.0417C7.74497 16.0888 7.93055 16.1372 8.11424 16.1851L8.11437 16.1851C8.2427 16.2186 8.37011 16.2518 8.49672 16.2842L7.9514 18.4738L9.26767 18.8022L9.8077 16.6358C10.1673 16.7334 10.5163 16.8234 10.8579 16.9083L10.3197 19.0645L11.6375 19.3929L12.1828 17.2073C14.4299 17.6326 16.1196 17.4611 16.8308 15.4286C17.4038 13.7922 16.8022 12.8483 15.62 12.2328C16.4811 12.0342 17.1296 11.4679 17.3026 10.298L17.3022 10.2977L17.3021 10.2979ZM14.2912 14.5198C13.9176 16.0212 11.5675 15.4005 10.4923 15.1165C10.3956 15.091 10.3092 15.0681 10.2355 15.0498L10.9591 12.1489C11.049 12.1714 11.1587 12.196 11.2831 12.2239L11.2831 12.2239C12.3953 12.4735 14.674 12.9849 14.2913 14.5198H14.2912ZM11.5062 10.8776C12.4026 11.1168 14.3582 11.6387 14.6988 10.2741H14.6989C15.0466 8.87855 13.1462 8.4578 12.218 8.2523C12.1136 8.22918 12.0215 8.20878 11.9462 8.19003L11.2902 10.821C11.3521 10.8364 11.4248 10.8558 11.5062 10.8776Z" fill="white"/>
</svg>
