<svg width="44" height="44" viewBox="0 0 44 44" fill="none" xmlns="http://www.w3.org/2000/svg">
<path opacity="0.4" d="M15.5573 21.3158C15.2526 21.3158 15 21.0632 15 20.7585V18.9009C15 16.7461 16.7536 15 18.9009 15H20.7585C21.0632 15 21.3158 15.2526 21.3158 15.5573C21.3158 15.8619 21.0632 16.1146 20.7585 16.1146H18.9009C17.3628 16.1146 16.1146 17.3628 16.1146 18.9009V20.7585C16.1146 21.0632 15.8619 21.3158 15.5573 21.3158Z" fill="#3E474F"/>
<path d="M29.5123 21.3158C29.2458 21.3158 29.0247 21.0632 29.0247 20.7585V18.9009C29.0247 17.3628 27.9325 16.1146 26.5866 16.1146H24.9612C24.6947 16.1146 24.4736 15.8619 24.4736 15.5573C24.4736 15.2526 24.6947 15 24.9612 15H26.5866C28.4656 15 29.9999 16.7461 29.9999 18.9009V20.7585C29.9999 21.0632 29.7789 21.3158 29.5123 21.3158Z" fill="#3E474F"/>
<path opacity="0.4" d="M26.1315 29.9999H25.0263C24.7242 29.9999 24.4736 29.7494 24.4736 29.4473C24.4736 29.1452 24.7242 28.8947 25.0263 28.8947H26.1315C27.6568 28.8947 28.8947 27.6568 28.8947 26.1315V25.0263C28.8947 24.7242 29.1452 24.4736 29.4473 24.4736C29.7494 24.4736 29.9999 24.7242 29.9999 25.0263V26.1315C29.9999 28.2684 28.261 29.9999 26.1315 29.9999Z" fill="#3E474F"/>
<path d="M20.7585 29.9999H18.9009C16.7536 29.9999 15 28.4721 15 26.5866V24.9612C15 24.6947 15.2526 24.4736 15.5573 24.4736C15.8619 24.4736 16.1146 24.6947 16.1146 24.9612V26.5866C16.1146 27.9325 17.3628 29.0247 18.9009 29.0247H20.7585C21.0632 29.0247 21.3158 29.2458 21.3158 29.5123C21.3158 29.7789 21.0632 29.9999 20.7585 29.9999Z" fill="#3E474F"/>
</svg>
