<svg width="44" height="44" viewBox="0 0 44 44" fill="none" xmlns="http://www.w3.org/2000/svg">
<path fill-rule="evenodd" clip-rule="evenodd" d="M21.2501 28C21.2501 28.41 21.5901 28.75 22.0001 28.75C22.4101 28.75 22.7501 28.41 22.7501 28V27.42H23.4002C24.8802 27.42 26.0802 26.17 26.0902 24.64C26.0902 22.85 25.0402 22.27 24.2602 22L22.7501 21.4679V18.08H23.1102C23.9202 18.08 24.5802 18.79 24.5802 19.66C24.5802 20.07 24.9202 20.41 25.3302 20.41C25.7402 20.41 26.0802 20.07 26.0802 19.66C26.0802 17.96 24.7502 16.58 23.1102 16.58H22.7501V16C22.7501 15.59 22.4101 15.25 22.0001 15.25C21.5901 15.25 21.2501 15.59 21.2501 16V16.58H20.6002C19.1202 16.58 17.9102 17.82 17.9102 19.36C17.9102 21.15 18.9602 21.73 19.7402 22L21.2501 22.532V25.92H20.8902C20.0802 25.92 19.4202 25.21 19.4202 24.34C19.4202 23.93 19.0802 23.59 18.6702 23.59C18.2602 23.59 17.9202 23.93 17.9202 24.34C17.9202 26.04 19.2502 27.42 20.8902 27.42H21.2501V28ZM22.7501 25.92H23.4002C24.0502 25.92 24.5902 25.34 24.5902 24.64C24.5902 23.77 24.2802 23.6 23.7702 23.42L22.7501 23.0606V25.92ZM21.2501 20.9394V18.08H20.6002C19.9502 18.08 19.4102 18.66 19.4102 19.36C19.4102 20.23 19.7202 20.4 20.2302 20.58L21.2501 20.9394Z" fill="#5ED5A8"/>
<path d="M22 32.75C16.07 32.75 11.25 27.93 11.25 22C11.25 16.07 16.07 11.25 22 11.25C27.93 11.25 32.75 16.07 32.75 22C32.75 27.93 27.93 32.75 22 32.75ZM22 12.75C16.9 12.75 12.75 16.9 12.75 22C12.75 27.1 16.9 31.25 22 31.25C27.1 31.25 31.25 27.1 31.25 22C31.25 16.9 27.1 12.75 22 12.75Z" fill="#5ED5A8"/>
</svg>
