<svg width="51" height="51" viewBox="0 0 51 51" fill="none" xmlns="http://www.w3.org/2000/svg">
<g clip-path="url(#clip0_217_9509)">
<path d="M44.2577 18.5888L20.4813 42.3655C19.4066 43.4398 17.6646 43.4398 16.5903 42.3655L2.5987 28.3738C1.52439 27.2991 1.52439 25.5571 2.5987 24.4828L26.375 0.706119C27.4497 -0.368185 29.1917 -0.368185 30.266 0.706119L44.2577 14.6978C45.3324 15.7721 45.3324 17.5144 44.2577 18.5888Z" fill="#5ED5A8"/>
<path d="M44.2578 14.6975L42.512 12.9512C43.4688 13.908 43.373 15.5546 42.2987 16.6289L18.522 40.4057C17.4477 41.4803 15.801 41.5757 14.8442 40.6189L16.5905 42.3652C17.6648 43.4395 19.4068 43.4395 20.4815 42.3652L44.2578 18.5884C45.3325 17.5141 45.3325 15.7718 44.2578 14.6975Z" fill="#459D7C"/>
<path d="M7.17061 27.3954C6.97917 27.3954 6.78812 27.3222 6.64221 27.1763C6.35038 26.8845 6.35038 26.4117 6.64221 26.1199L18.2884 14.4738C18.5802 14.1819 19.0533 14.1819 19.3448 14.4738C19.6366 14.7656 19.6366 15.2387 19.3448 15.5302L7.69861 27.1767C7.5527 27.3222 7.36165 27.3954 7.17061 27.3954Z" fill="#1B232A"/>
<path d="M10.8718 31.0965C10.6803 31.0965 10.4893 31.0234 10.3434 30.8775C10.0516 30.5856 10.0516 30.1129 10.3434 29.8211L21.9895 18.1749C22.2813 17.8831 22.7545 17.8831 23.0459 18.1749C23.3378 18.4667 23.3378 18.9399 23.0459 19.2313L11.3998 30.8775C11.2539 31.0234 11.0628 31.0965 10.8718 31.0965Z" fill="#1B232A"/>
<path d="M25.9866 6.12543L23.6567 8.45497C22.7407 9.37091 22.7407 10.8557 23.6567 11.7717C24.5726 12.6876 26.0578 12.6876 26.9738 11.7717L29.3033 9.44212C30.2192 8.52618 30.2192 7.04137 29.3033 6.12543C28.3874 5.20949 26.9022 5.20949 25.9866 6.12543Z" fill="#FFCD34"/>
<path d="M46.503 25.6104H12.8778C11.3584 25.6104 10.1265 26.8422 10.1265 28.3617V48.149C10.1265 49.6684 11.3584 50.9003 12.8778 50.9003H46.503C48.0228 50.9003 49.2543 49.6684 49.2543 48.149V28.3617C49.2547 26.8422 48.0228 25.6104 46.503 25.6104Z" fill="#5ED5A8"/>
<path d="M46.5031 25.6104H44.0405C45.56 25.6104 46.7919 26.8422 46.7919 28.3617V48.149C46.7919 49.6684 45.56 50.9003 44.0405 50.9003H46.5031C48.023 50.9003 49.2545 49.6684 49.2545 48.149V28.3617C49.2549 26.8422 48.023 25.6104 46.5031 25.6104Z" fill="#459D7C"/>
<path d="M10.1265 31.8271H49.2547V36.5808H10.1265V31.8271Z" fill="#1B232A"/>
<path d="M46.7915 31.8271H49.2541V36.5808H46.7915V31.8271Z" fill="#090C0E"/>
<path d="M39.6372 44.1761V47.108C39.6372 47.3348 39.8209 47.5185 40.0477 47.5185H44.7111C44.9379 47.5185 45.1216 47.3348 45.1216 47.108V44.1761C45.1216 43.9493 44.9379 43.7656 44.7111 43.7656H40.0477C39.8209 43.7656 39.6372 43.9493 39.6372 44.1761Z" fill="#FFCD34"/>
<path d="M25.5771 44.1761V47.108C25.5771 47.3348 25.7612 47.5185 25.9876 47.5185H35.8513C36.0782 47.5185 36.2618 47.3348 36.2618 47.108V44.1761C36.2618 43.9493 36.0782 43.7656 35.8513 43.7656H25.9876C25.7612 43.7656 25.5771 43.9493 25.5771 44.1761Z" fill="#FFCD34"/>
<path d="M21.5565 48.2656H16.6426C16.2297 48.2656 15.8955 47.931 15.8955 47.5186C15.8955 47.1057 16.2297 46.7715 16.6426 46.7715H21.5565C21.9694 46.7715 22.3036 47.1057 22.3036 47.5186C22.3036 47.931 21.9694 48.2656 21.5565 48.2656Z" fill="#1B232A"/>
</g>
<defs>
<clipPath id="clip0_217_9509">
<rect width="51" height="51" fill="white"/>
</clipPath>
</defs>
</svg>
