<svg width="26" height="26" viewBox="0 0 26 26" fill="none" xmlns="http://www.w3.org/2000/svg">
<g clip-path="url(#clip0_682_131)">
<path d="M25.9924 0H0.00761719C0.00341033 0 0 0.00341033 0 0.00761719V25.9924C0 25.9966 0.00341033 26 0.00761719 26H25.9924C25.9966 26 26 25.9966 26 25.9924V0.00761719C26 0.00341033 25.9966 0 25.9924 0Z" fill="#1877F2"/>
<path d="M18.0578 16.7578L18.6367 13H15.0313V10.5625C15.0313 9.53672 15.534 8.53125 17.1488 8.53125H18.7891V5.33203C18.7891 5.33203 17.3012 5.07812 15.8793 5.07812C12.9086 5.07812 10.9688 6.87578 10.9688 10.1359V13H7.66797V16.7578H10.9688V26H15.0313V16.7578H18.0578Z" fill="white"/>
</g>
<defs>
<clipPath id="clip0_682_131">
<rect width="26" height="26" rx="13" fill="white"/>
</clipPath>
</defs>
</svg>
