<svg width="150" height="77" viewBox="0 0 150 77" fill="none" xmlns="http://www.w3.org/2000/svg">
<path d="M8.442 70.668V63.99H7.182V70.668C7.182 72.292 6.342 73.076 4.606 73.076C2.87 73.076 2.03 72.292 2.03 70.668V63.99H0.77V70.668C0.77 72.712 1.932 74.196 4.606 74.196C7.28 74.196 8.442 72.712 8.442 70.668ZM13.2524 69.758C12.2584 69.52 11.2924 69.45 11.2924 68.61C11.2924 68.05 11.8384 67.644 12.8464 67.644C14.1904 67.644 14.4564 68.358 14.5684 68.904H15.6884C15.5764 67.672 14.6244 66.664 12.8464 66.664C11.1664 66.664 10.1724 67.574 10.1724 68.694C10.1724 70.374 11.7964 70.5 12.8884 70.766C13.9104 71.018 14.8484 71.074 14.8484 72.11C14.8484 72.586 14.3724 73.216 13.1544 73.216C11.3624 73.216 11.0824 72.418 11.0124 71.62H9.89244C9.96244 73.16 10.9704 74.196 13.1544 74.196C14.7784 74.196 15.9684 73.342 15.9684 72.04C15.9684 70.276 14.5264 70.066 13.2524 69.758ZM20.598 73.216C19.044 73.216 18.274 72.012 18.274 70.724H23.916C23.916 68.19 22.824 66.664 20.584 66.664C18.498 66.664 17.154 68.05 17.154 70.43C17.154 72.67 18.47 74.196 20.64 74.196C22.418 74.196 23.44 73.132 23.804 71.802H22.684C22.558 72.292 22.026 73.216 20.598 73.216ZM20.584 67.644C21.928 67.644 22.796 68.596 22.796 69.744H18.274C18.274 68.596 19.24 67.644 20.584 67.644ZM31.5768 64.97V63.99C31.3248 63.934 31.0308 63.906 30.7788 63.906C29.8268 63.906 29.0988 64.284 29.0988 65.74V66.86H28.1048V67.84H29.0988V74H30.2188V67.84H31.5768V66.86H30.2188V65.852C30.2188 65.04 30.6248 64.9 31.5768 64.97ZM33.7379 65.474C34.0599 65.474 34.4379 65.236 34.4379 64.802C34.4379 64.368 34.0599 64.13 33.7379 64.13C33.4299 64.13 33.0379 64.368 33.0379 64.802C33.0379 65.236 33.4299 65.474 33.7379 65.474ZM33.1779 66.86V74H34.2979V66.86H33.1779ZM39.847 66.664C38.629 66.664 37.873 67.21 37.495 67.714H37.467V66.86H36.347V74H37.467V69.548C37.467 68.442 38.307 67.644 39.567 67.644C40.687 67.644 41.121 68.372 41.121 69.296V74H42.241V69.016C42.241 67.378 41.149 66.664 39.847 66.664ZM49.1951 66.86V67.742H49.1671C48.7471 67.196 48.0751 66.664 46.8991 66.664C45.1351 66.664 43.7071 67.798 43.7071 70.15C43.7071 72.502 45.1351 73.636 46.8991 73.636C48.0751 73.636 48.7471 73.132 49.1671 72.516H49.1951V73.594C49.1951 74.924 48.4251 75.498 47.0951 75.498C45.7651 75.498 45.1771 74.952 45.0371 74.224H43.9171C44.0291 75.442 45.1911 76.478 47.1511 76.478C49.1111 76.478 50.3151 75.512 50.3151 73.608V66.86H49.1951ZM47.0391 72.656C45.5691 72.656 44.8271 71.55 44.8271 70.15C44.8271 68.75 45.5691 67.644 47.0391 67.644C48.3691 67.644 49.1951 68.47 49.1951 70.15C49.1951 71.83 48.3691 72.656 47.0391 72.656ZM55.2589 73.216C53.7049 73.216 52.9349 72.012 52.9349 70.724H58.5769C58.5769 68.19 57.4849 66.664 55.2449 66.664C53.1589 66.664 51.8149 68.05 51.8149 70.43C51.8149 72.67 53.1309 74.196 55.3009 74.196C57.0789 74.196 58.1009 73.132 58.4649 71.802H57.3449C57.2189 72.292 56.6869 73.216 55.2589 73.216ZM55.2449 67.644C56.5889 67.644 57.4569 68.596 57.4569 69.744H52.9349C52.9349 68.596 53.9009 67.644 55.2449 67.644ZM63.1774 66.664C62.1554 66.664 61.5814 67.336 61.2034 68.274H61.1754V66.86H60.0554V74H61.1754V70.192C61.1754 68.666 62.2534 67.574 63.8074 67.826H63.8354V66.706C63.6394 66.678 63.4434 66.664 63.1774 66.664ZM68.6398 66.664C67.4638 66.664 66.7918 67.196 66.3718 67.742H66.3438V66.86H65.2238V76.408H66.3438V73.076H66.3718C66.7918 73.692 67.4638 74.196 68.6398 74.196C70.4038 74.196 71.8318 72.782 71.8318 70.43C71.8318 68.078 70.4038 66.664 68.6398 66.664ZM68.4998 73.216C67.1698 73.216 66.3438 72.11 66.3438 70.43C66.3438 68.75 67.1698 67.644 68.4998 67.644C69.9698 67.644 70.7118 69.03 70.7118 70.43C70.7118 71.83 69.9698 73.216 68.4998 73.216ZM76.4947 66.664C75.4727 66.664 74.8987 67.336 74.5207 68.274H74.4927V66.86H73.3727V74H74.4927V70.192C74.4927 68.666 75.5707 67.574 77.1247 67.826H77.1527V66.706C76.9567 66.678 76.7607 66.664 76.4947 66.664ZM79.2411 65.474C79.5631 65.474 79.9411 65.236 79.9411 64.802C79.9411 64.368 79.5631 64.13 79.2411 64.13C78.9331 64.13 78.5411 64.368 78.5411 64.802C78.5411 65.236 78.9331 65.474 79.2411 65.474ZM78.6811 66.86V74H79.8011V66.86H78.6811ZM85.3502 66.664C84.1322 66.664 83.3762 67.21 82.9982 67.714H82.9702V66.86H81.8502V74H82.9702V69.548C82.9702 68.442 83.8102 67.644 85.0702 67.644C86.1902 67.644 86.6242 68.372 86.6242 69.296V74H87.7442V69.016C87.7442 67.378 86.6522 66.664 85.3502 66.664ZM92.5876 67.84V66.86H91.1876V64.48H90.0676V66.86H89.0176V67.84H90.0676V72.25C90.0676 73.706 90.7956 74.084 91.7476 74.084C92.0416 74.084 92.3356 74.056 92.5876 74V73.02C91.6356 73.09 91.1876 72.95 91.1876 72.138V67.84H92.5876ZM98.0008 65.474C98.3228 65.474 98.7008 65.236 98.7008 64.802C98.7008 64.368 98.3228 64.13 98.0008 64.13C97.6928 64.13 97.3008 64.368 97.3008 64.802C97.3008 65.236 97.6928 65.474 98.0008 65.474ZM97.4408 66.86V74H98.5608V66.86H97.4408ZM104.11 66.664C102.892 66.664 102.136 67.21 101.758 67.714H101.73V66.86H100.61V74H101.73V69.548C101.73 68.442 102.57 67.644 103.83 67.644C104.95 67.644 105.384 68.372 105.384 69.296V74H106.504V69.016C106.504 67.378 105.412 66.664 104.11 66.664ZM111.274 69.758C110.28 69.52 109.314 69.45 109.314 68.61C109.314 68.05 109.86 67.644 110.868 67.644C112.212 67.644 112.478 68.358 112.59 68.904H113.71C113.598 67.672 112.646 66.664 110.868 66.664C109.188 66.664 108.194 67.574 108.194 68.694C108.194 70.374 109.818 70.5 110.91 70.766C111.932 71.018 112.87 71.074 112.87 72.11C112.87 72.586 112.394 73.216 111.176 73.216C109.384 73.216 109.104 72.418 109.034 71.62H107.914C107.984 73.16 108.992 74.196 111.176 74.196C112.8 74.196 113.99 73.342 113.99 72.04C113.99 70.276 112.548 70.066 111.274 69.758ZM118.416 67.84V66.86H117.016V64.48H115.896V66.86H114.846V67.84H115.896V72.25C115.896 73.706 116.624 74.084 117.576 74.084C117.87 74.084 118.164 74.056 118.416 74V73.02C117.464 73.09 117.016 72.95 117.016 72.138V67.84H118.416ZM122.927 73.216C121.373 73.216 120.603 72.012 120.603 70.724H126.245C126.245 68.19 125.153 66.664 122.913 66.664C120.827 66.664 119.483 68.05 119.483 70.43C119.483 72.67 120.799 74.196 122.969 74.196C124.747 74.196 125.769 73.132 126.133 71.802H125.013C124.887 72.292 124.355 73.216 122.927 73.216ZM122.913 67.644C124.257 67.644 125.125 68.596 125.125 69.744H120.603C120.603 68.596 121.569 67.644 122.913 67.644ZM132.091 68.68C132.091 69.394 131.545 69.548 130.341 69.772C128.493 70.122 127.289 70.542 127.289 72.166C127.289 73.37 128.199 74.196 129.641 74.196C130.817 74.196 131.615 73.776 132.063 73.104H132.091C132.287 73.888 132.693 74.07 133.365 74.07C133.575 74.07 133.729 74.056 134.023 73.958V73.174C133.309 73.258 133.211 72.95 133.211 72.39V68.918C133.211 67.196 131.993 66.664 130.635 66.664C128.563 66.664 127.709 67.7 127.639 69.072H128.759C128.829 68.036 129.277 67.644 130.635 67.644C131.783 67.644 132.091 68.12 132.091 68.68ZM129.753 73.216C128.829 73.216 128.409 72.81 128.409 72.11C128.409 71.256 129.053 70.906 130.439 70.612C131.195 70.458 131.881 70.262 132.091 70.052V71.242C132.091 72.614 131.083 73.216 129.753 73.216ZM140.311 63.99V67.784H140.283C139.863 67.168 139.191 66.664 138.043 66.664C136.251 66.664 134.823 68.078 134.823 70.43C134.823 72.782 136.251 74.196 138.043 74.196C139.191 74.196 139.863 73.664 140.283 73.118H140.311V74H141.431V63.99H140.311ZM138.155 73.216C136.685 73.216 135.943 71.83 135.943 70.43C135.943 69.03 136.685 67.644 138.155 67.644C139.485 67.644 140.311 68.75 140.311 70.43C140.311 72.11 139.485 73.216 138.155 73.216ZM144.202 67.238C144.202 65.488 145.098 64.914 146.33 64.914C147.408 64.914 148.08 65.53 148.08 66.356C148.08 67.392 147.45 67.672 146.792 68.26C145.966 68.988 145.14 69.814 145.14 71.438H146.4C146.4 69.856 147.1 69.338 147.87 68.708C148.64 68.078 149.34 67.602 149.34 66.356C149.34 64.858 148.038 63.794 146.33 63.794C144.02 63.794 142.942 65.25 142.942 67.238H144.202ZM145.77 74.098C146.204 74.098 146.54 73.804 146.54 73.328C146.54 72.866 146.204 72.558 145.77 72.558C145.336 72.558 145 72.866 145 73.328C145 73.804 145.336 74.098 145.77 74.098Z" fill="#A7AFB7"/>
<path fill-rule="evenodd" clip-rule="evenodd" d="M60.6659 20.8876C63.2879 15.6217 68.7238 11.9998 74.9997 11.9998C83.8295 11.9998 90.9994 19.1697 90.9994 27.9995C90.9994 29.1035 90.1034 29.9995 88.9994 29.9995C87.8954 29.9995 86.9995 29.1035 86.9995 27.9995C86.9995 21.3776 81.6216 15.9997 74.9997 15.9997C68.3778 15.9997 62.9999 21.3776 62.9999 27.9995C62.9999 34.6214 68.3778 39.9993 74.9997 39.9993C76.1036 39.9993 76.9996 39.1033 76.9996 37.9994C76.9996 36.8954 76.1036 35.9994 74.9997 35.9994C70.5837 35.9994 66.9998 32.4155 66.9998 27.9995C66.9998 23.5836 70.5837 19.9997 74.9997 19.9997C79.4156 19.9997 82.9995 23.5836 82.9995 27.9995C82.9995 31.3115 85.6875 33.9994 88.9994 33.9994C92.3114 33.9994 94.9993 31.3115 94.9993 27.9995C94.9993 16.9617 86.0375 7.99987 74.9997 7.99987C67.1558 7.99987 60.36 12.5238 57.086 19.1037C56.594 20.0917 56.996 21.2937 57.984 21.7856C58.9719 22.2776 60.1739 21.8756 60.6659 20.8876ZM61.6959 36.8854C59.994 34.3434 58.9999 31.2875 58.9999 27.9995C58.9999 26.8955 58.1039 25.9996 57 25.9996C55.896 25.9996 55 26.8955 55 27.9995C55 32.1095 56.244 35.9334 58.374 39.1134C58.988 40.0293 60.2299 40.2753 61.1478 39.6613C62.0638 39.0473 62.3099 37.8034 61.6959 36.8854ZM60.2139 9.09985C64.2898 5.90591 69.4238 3.99993 74.9997 3.99993C80.5676 3.99993 85.6934 5.8999 89.7674 9.08585C90.6373 9.76583 91.8954 9.61183 92.5754 8.74384C93.2554 7.87386 93.1014 6.61589 92.2314 5.9359C87.4795 2.21797 81.4956 0 74.9997 0C68.4938 0 62.5018 2.22396 57.7459 5.9519C56.8779 6.63388 56.726 7.89188 57.406 8.75986C58.088 9.62785 59.3459 9.78184 60.2139 9.09985Z" fill="#5ED5A8"/>
</svg>
