<svg width="26" height="26" viewBox="0 0 26 26" fill="none" xmlns="http://www.w3.org/2000/svg">
<g clip-path="url(#clip0_682_847)">
<path d="M13 18.7689C10.3188 18.7689 8.125 16.9814 7.475 14.5439L2.03125 19.9877C4.30625 23.5627 8.36875 26.0002 13 26.0002C15.5188 26.0002 17.875 25.2689 19.9062 23.9689L14.4625 18.5252C13.975 18.6877 13.4875 18.7689 13 18.7689Z" fill="#34A853"/>
<path d="M26 11.2125C25.9187 10.8063 25.5938 10.5625 25.1875 10.5625H13C12.5125 10.5625 12.1875 10.8875 12.1875 11.375V15.4375C12.1875 15.925 12.5125 16.25 13 16.25H17.3062C16.575 17.3875 15.5187 18.1187 14.4625 18.525L19.9062 23.9688C23.5625 21.6938 26 17.6312 26 13C26 12.7562 26 12.5938 26 12.4313C26.0813 12.1063 26.0813 11.7 26 11.2125Z" fill="#4285F4"/>
<path d="M7.23125 13C7.23125 12.5125 7.3125 12.025 7.39375 11.5375L2.03125 6.09375C0.73125 8.125 0 10.4813 0 13C0 15.5188 0.73125 17.875 2.03125 19.9062L7.475 14.4625C7.3125 13.975 7.23125 13.4875 7.23125 13Z" fill="#FBBC05"/>
<path d="M23.1562 4.875C22.2625 3.7375 21.125 2.7625 19.9062 1.95C17.875 0.73125 15.5188 0 13 0C8.36875 0 4.30625 2.4375 2.03125 6.09375L7.475 11.5375C8.125 9.1 10.4 7.3125 13 7.3125C13.4875 7.3125 13.975 7.39375 14.4625 7.55625C15.1937 7.8 15.8438 8.20625 16.575 8.775C16.8187 9.01875 17.1438 9.01875 17.4688 8.85625L22.9125 6.175C23.1562 6.09375 23.3188 5.85 23.3188 5.60625C23.4 5.3625 23.3188 5.11875 23.1562 4.875Z" fill="#EA4335"/>
</g>
<defs>
<clipPath id="clip0_682_847">
<rect width="26" height="26" fill="white"/>
</clipPath>
</defs>
</svg>
