<svg width="44" height="44" viewBox="0 0 44 44" fill="none" xmlns="http://www.w3.org/2000/svg">
<path opacity="0.4" d="M31.2501 19.15C30.7601 18.37 30.2001 17.67 29.6201 17.04L25.8501 20.81C25.9701 21.18 26.0401 21.58 26.0401 22C26.0401 24.24 24.2301 26.04 22.0001 26.04C21.5801 26.04 21.1801 25.97 20.8101 25.85L17.3501 29.31C18.8101 30.13 20.3901 30.56 22.0001 30.56C23.7801 30.56 25.5101 30.04 27.0901 29.07C28.6701 28.09 30.0901 26.66 31.2501 24.84C32.2501 23.28 32.2501 20.72 31.2501 19.15Z" fill="#3E474F"/>
<path d="M24.0201 19.9796L19.9801 24.0196C19.4701 23.4996 19.1401 22.7796 19.1401 21.9996C19.1401 20.4296 20.4201 19.1396 22.0001 19.1396C22.7801 19.1396 23.5001 19.4696 24.0201 19.9796Z" fill="#3E474F"/>
<path opacity="0.4" d="M28.25 15.7497L24.86 19.1397C24.13 18.3997 23.12 17.9597 22 17.9597C19.76 17.9597 17.96 19.7697 17.96 21.9997C17.96 23.1197 18.41 24.1297 19.14 24.8597L15.76 28.2497H15.75C14.64 27.3497 13.62 26.1997 12.75 24.8397C11.75 23.2697 11.75 20.7197 12.75 19.1497C13.91 17.3297 15.33 15.8997 16.91 14.9197C18.49 13.9597 20.22 13.4297 22 13.4297C24.23 13.4297 26.39 14.2497 28.25 15.7497Z" fill="#3E474F"/>
<path d="M24.8601 22.0001C24.8601 23.5701 23.5801 24.8601 22.0001 24.8601C21.9401 24.8601 21.8901 24.8601 21.8301 24.8401L24.8401 21.8301C24.8601 21.8901 24.8601 21.9401 24.8601 22.0001Z" fill="#3E474F"/>
<path d="M31.7699 12.2299C31.4699 11.9299 30.9799 11.9299 30.6799 12.2299L12.2299 30.6899C11.9299 30.9899 11.9299 31.4799 12.2299 31.7799C12.3799 31.9199 12.5699 31.9999 12.7699 31.9999C12.9699 31.9999 13.1599 31.9199 13.3099 31.7699L31.7699 13.3099C32.0799 13.0099 32.0799 12.5299 31.7699 12.2299Z" fill="#3E474F"/>
</svg>
