<svg width="44" height="44" viewBox="5 0 44 44" fill="none" xmlns="http://www.w3.org/2000/svg">
<g filter="url(#filter0_d_217_7604)">
<path opacity="0.4" d="M32.5099 11.7998C32.0099 11.7998 31.6099 12.1998 31.6099 12.6998V17.3498C31.6099 17.8498 32.0099 18.2498 32.5099 18.2498C33.0099 18.2498 33.4099 17.8498 33.4099 17.3498V12.6998C33.4099 12.1998 33.0099 11.7998 32.5099 11.7998Z" fill="#747E87"/>
<path d="M26.0001 25.75C25.5001 25.75 25.1001 26.15 25.1001 26.65V31.3C25.1001 31.8 25.5001 32.2 26.0001 32.2C26.5001 32.2 26.9001 31.8 26.9001 31.3V26.65C26.9001 26.16 26.5001 25.75 26.0001 25.75Z" fill="#5ED5A8"/>
<path opacity="0.4" d="M19.4898 11.7998C18.9898 11.7998 18.5898 12.1998 18.5898 12.6998V17.3498C18.5898 17.8498 18.9898 18.2498 19.4898 18.2498C19.9898 18.2498 20.3898 17.8498 20.3898 17.3498V12.6998C20.3898 12.1998 19.9798 11.7998 19.4898 11.7998Z" fill="#747E87"/>
<path opacity="0.4" d="M21.35 20.1699H17.63C17.13 20.1699 16.73 20.5699 16.73 21.0699C16.73 21.5699 17.13 21.9699 17.63 21.9699H18.59V31.2999C18.59 31.7999 18.99 32.1999 19.49 32.1999C19.99 32.1999 20.39 31.7999 20.39 31.2999V21.9699H21.35C21.85 21.9699 22.25 21.5699 22.25 21.0699C22.25 20.5699 21.84 20.1699 21.35 20.1699Z" fill="#747E87"/>
<path opacity="0.4" d="M34.37 20.1699H30.65C30.15 20.1699 29.75 20.5699 29.75 21.0699C29.75 21.5699 30.15 21.9699 30.65 21.9699H31.61V31.2999C31.61 31.7999 32.01 32.1999 32.51 32.1999C33.01 32.1999 33.41 31.7999 33.41 31.2999V21.9699H34.37C34.87 21.9699 35.27 21.5699 35.27 21.0699C35.27 20.5699 34.87 20.1699 34.37 20.1699Z" fill="#747E87"/>
<path d="M27.8602 22.0298H26.9002V12.6998C26.9002 12.1998 26.5002 11.7998 26.0002 11.7998C25.5002 11.7998 25.1002 12.1998 25.1002 12.6998V22.0298H24.1402C23.6402 22.0298 23.2402 22.4298 23.2402 22.9298C23.2402 23.4298 23.6402 23.8298 24.1402 23.8298H27.8602C28.3602 23.8298 28.7602 23.4298 28.7602 22.9298C28.7602 22.4298 28.3602 22.0298 27.8602 22.0298Z" fill="#5ED5A8"/>
</g>
<defs>
<filter id="filter0_d_217_7604" x="0.72998" y="0.799805" width="50.54" height="52.4004" filterUnits="userSpaceOnUse" color-interpolation-filters="sRGB">
<feFlood flood-opacity="0" result="BackgroundImageFix"/>
<feColorMatrix in="SourceAlpha" type="matrix" values="0 0 0 0 0 0 0 0 0 0 0 0 0 0 0 0 0 0 127 0" result="hardAlpha"/>
<feOffset dy="5"/>
<feGaussianBlur stdDeviation="8"/>
<feComposite in2="hardAlpha" operator="out"/>
<feColorMatrix type="matrix" values="0 0 0 0 0.368627 0 0 0 0 0.835294 0 0 0 0 0.658824 0 0 0 0.25 0"/>
<feBlend mode="normal" in2="BackgroundImageFix" result="effect1_dropShadow_217_7604"/>
<feBlend mode="normal" in="SourceGraphic" in2="effect1_dropShadow_217_7604" result="shape"/>
</filter>
</defs>
</svg>
