<svg width="40" height="40" viewBox="0 0 40 40" fill="none" xmlns="http://www.w3.org/2000/svg">
<circle cx="20" cy="20" r="20" fill="#7833F6"/>
<path fill-rule="evenodd" clip-rule="evenodd" d="M12.8334 20.0853C13.1542 20.4052 13.5888 20.5849 14.0419 20.5849C14.495 20.5849 14.9296 20.4052 15.2504 20.0853L20.0858 15.25C20.4057 14.9291 20.5854 14.4945 20.5854 14.0414C20.5854 13.5883 20.4057 13.1537 20.0858 12.8329C19.7649 12.5128 19.3302 12.333 18.8769 12.333C18.4237 12.333 17.989 12.5128 17.6681 12.8329L12.8334 17.6676C12.5133 17.9885 12.3335 18.4232 12.3335 18.8765C12.3335 19.3297 12.5133 19.7644 12.8334 20.0853ZM19.5826 24.4167L24.4173 19.582C24.7382 19.2618 25.1729 19.0821 25.6262 19.0821C26.0794 19.0821 26.5141 19.2618 26.835 19.582C27.1551 19.9028 27.3349 20.3376 27.3349 20.7908C27.3349 21.2441 27.1551 21.6788 26.835 21.9997L22.0003 26.8344C21.6794 27.1545 21.2447 27.3343 20.7914 27.3343C20.3382 27.3343 19.9035 27.1545 19.5826 26.8344C19.2625 26.5135 19.0827 26.0788 19.0827 25.6256C19.0827 25.1723 19.2625 24.7376 19.5826 24.4167ZM19.2288 22.1459C18.7756 22.1459 18.3408 21.9661 18.02 21.6459C17.6998 21.3251 17.52 20.8903 17.52 20.4371C17.52 19.9838 17.6998 19.5491 18.02 19.2283L19.2288 18.0195C19.5496 17.6993 19.9844 17.5195 20.4376 17.5195C20.8909 17.5195 21.3256 17.6993 21.6464 18.0195C21.9666 18.3403 22.1464 18.775 22.1464 19.2283C22.1464 19.6815 21.9666 20.1162 21.6464 20.4371L20.4376 21.6459C20.1167 21.9661 19.682 22.1459 19.2288 22.1459Z" fill="white"/>
</svg>
