<svg width="40" height="40" viewBox="0 0 40 40" fill="none" xmlns="http://www.w3.org/2000/svg">
<circle cx="20" cy="20" r="20" fill="#7833F6"/>
<path fill-rule="evenodd" clip-rule="evenodd" d="M12.8339 20.0853C13.1547 20.4052 13.5893 20.5849 14.0424 20.5849C14.4955 20.5849 14.9301 20.4052 15.2509 20.0853L20.0863 15.25C20.4062 14.9291 20.5859 14.4945 20.5859 14.0414C20.5859 13.5883 20.4062 13.1537 20.0863 12.8329C19.7654 12.5128 19.3307 12.333 18.8774 12.333C18.4242 12.333 17.9894 12.5128 17.6686 12.8329L12.8339 17.6676C12.5138 17.9885 12.334 18.4232 12.334 18.8765C12.334 19.3297 12.5138 19.7644 12.8339 20.0853ZM19.5831 24.4167L24.4178 19.582C24.7387 19.2618 25.1734 19.0821 25.6267 19.0821C26.0799 19.0821 26.5146 19.2618 26.8355 19.582C27.1556 19.9028 27.3354 20.3376 27.3354 20.7908C27.3354 21.2441 27.1556 21.6788 26.8355 21.9997L22.0008 26.8344C21.6799 27.1545 21.2452 27.3343 20.7919 27.3343C20.3387 27.3343 19.904 27.1545 19.5831 26.8344C19.263 26.5135 19.0832 26.0788 19.0832 25.6256C19.0832 25.1723 19.263 24.7376 19.5831 24.4167ZM19.2293 22.1459C18.776 22.1459 18.3413 21.9661 18.0205 21.6459C17.7003 21.3251 17.5205 20.8903 17.5205 20.4371C17.5205 19.9838 17.7003 19.5491 18.0205 19.2283L19.2293 18.0195C19.5501 17.6993 19.9848 17.5195 20.4381 17.5195C20.8913 17.5195 21.3261 17.6993 21.6469 18.0195C21.9671 18.3403 22.1469 18.775 22.1469 19.2283C22.1469 19.6815 21.9671 20.1162 21.6469 20.4371L20.4381 21.6459C20.1172 21.9661 19.6825 22.1459 19.2293 22.1459Z" fill="white"/>
</svg>
