<svg width="24" height="24" viewBox="0 0 24 24" fill="none" xmlns="http://www.w3.org/2000/svg">
<circle cx="12" cy="12" r="12" fill="#7833F6"/>
<path fill-rule="evenodd" clip-rule="evenodd" d="M7.69984 12.0518C7.89234 12.2437 8.1531 12.3515 8.42496 12.3515C8.69681 12.3515 8.95757 12.2437 9.15007 12.0518L12.0513 9.15056C12.2432 8.95806 12.351 8.6973 12.351 8.42545C12.351 8.15359 12.2432 7.89283 12.0513 7.70033C11.8588 7.50826 11.5979 7.40039 11.326 7.40039C11.054 7.40039 10.7932 7.50826 10.6007 7.70033L7.69984 10.6012C7.50777 10.7937 7.3999 11.0545 7.3999 11.3265C7.3999 11.5984 7.50777 11.8592 7.69984 12.0518ZM11.7494 14.6506L14.6502 11.7498C14.8427 11.5577 15.1036 11.4498 15.3755 11.4498C15.6475 11.4498 15.9083 11.5577 16.1008 11.7498C16.2929 11.9423 16.4008 12.2031 16.4008 12.4751C16.4008 12.747 16.2929 13.0079 16.1008 13.2004L13.2 16.1012C13.0075 16.2933 12.7466 16.4011 12.4747 16.4011C12.2027 16.4011 11.9419 16.2933 11.7494 16.1012C11.5573 15.9087 11.4494 15.6478 11.4494 15.3759C11.4494 15.104 11.5573 14.8431 11.7494 14.6506ZM11.5371 13.2881C11.2652 13.2881 11.0043 13.1802 10.8118 12.9881C10.6197 12.7956 10.5119 12.5348 10.5119 12.2628C10.5119 11.9909 10.6197 11.73 10.8118 11.5375L11.5371 10.8123C11.7296 10.6202 11.9905 10.5123 12.2624 10.5123C12.5343 10.5123 12.7952 10.6202 12.9877 10.8123C13.1798 11.0047 13.2877 11.2656 13.2877 11.5375C13.2877 11.8095 13.1798 12.0703 12.9877 12.2628L12.2624 12.9881C12.0699 13.1802 11.809 13.2881 11.5371 13.2881Z" fill="white"/>
</svg>
