<svg width="80" height="80" viewBox="5 5 44 44" fill="none" xmlns="http://www.w3.org/2000/svg">
<g filter="url(#filter0_d_217_7562)">
<path d="M16 17V31C16 31.83 16.94 32.3 17.6 31.8L19.31 30.52C19.71 30.22 20.27 30.26 20.63 30.62L22.29 32.29C22.68 32.68 23.32 32.68 23.71 32.29L25.39 30.61C25.74 30.26 26.3 30.22 26.69 30.52L28.4 31.8C29.06 32.29 30 31.82 30 31V14C30 12.9 30.9 12 32 12H21H20C17 12 16 13.79 16 16V17Z" fill="#5ED5A8"/>
<path d="M32.01 12V13.5C32.67 13.5 33.3 13.77 33.76 14.22C34.24 14.71 34.5 15.34 34.5 16V18.42C34.5 19.16 34.17 19.5 33.42 19.5H31.5V14.01C31.5 13.73 31.73 13.5 32.01 13.5V12ZM32.01 12C30.9 12 30 12.9 30 14.01V21H33.42C35 21 36 20 36 18.42V16C36 14.9 35.55 13.9 34.83 13.17C34.1 12.45 33.11 12.01 32.01 12C32.02 12 32.01 12 32.01 12Z" fill="#5ED5A8"/>
</g>
<defs>
<filter id="filter0_d_217_7562" x="0" y="1" width="52" height="52.582" filterUnits="userSpaceOnUse" color-interpolation-filters="sRGB">
<feFlood flood-opacity="0" result="BackgroundImageFix"/>
<feColorMatrix in="SourceAlpha" type="matrix" values="0 0 0 0 0 0 0 0 0 0 0 0 0 0 0 0 0 0 127 0" result="hardAlpha"/>
<feOffset dy="5"/>
<feGaussianBlur stdDeviation="8"/>
<feComposite in2="hardAlpha" operator="out"/>
<feColorMatrix type="matrix" values="0 0 0 0 0.368627 0 0 0 0 0.835294 0 0 0 0 0.658824 0 0 0 0.25 0"/>
<feBlend mode="normal" in2="BackgroundImageFix" result="effect1_dropShadow_217_7562"/>
<feBlend mode="normal" in="SourceGraphic" in2="effect1_dropShadow_217_7562" result="shape"/>
</filter>
</defs>
</svg>
