<svg width="80" height="80" viewBox="5 5 44 44" fill="none" xmlns="http://www.w3.org/2000/svg">
<g filter="url(#filter0_d_217_7547)">
<path d="M29 18.75C28.59 18.75 28.25 18.41 28.25 18V14.5C28.25 13.42 27.58 12.75 26.5 12.75H23.5C22.42 12.75 21.75 13.42 21.75 14.5V18C21.75 18.41 21.41 18.75 21 18.75C20.59 18.75 20.25 18.41 20.25 18V14.5C20.25 12.59 21.59 11.25 23.5 11.25H26.5C28.41 11.25 29.75 12.59 29.75 14.5V18C29.75 18.41 29.41 18.75 29 18.75Z" fill="#5ED5A8"/>
<path d="M20.9998 27.78C20.5898 27.78 20.2498 27.44 20.2498 27.03C20.2498 26.61 20.5898 26.28 20.9998 26.28H32.7598C33.0598 26.28 33.2898 26.02 33.2598 25.72L32.5798 20.03C32.3398 18.09 31.9998 16.5 28.5998 16.5H21.3998C17.9998 16.5 17.6598 18.09 17.4298 20.03L16.5298 27.53C16.2398 29.99 16.9998 32 20.5098 32H29.4898C32.6498 32 33.5798 30.37 33.5298 28.25C33.5198 27.98 33.2998 27.78 33.0298 27.78H20.9998Z" fill="#5ED5A8"/>
</g>
<defs>
<filter id="filter0_d_217_7547" x="0.473633" y="0.25" width="49.0581" height="52.75" filterUnits="userSpaceOnUse" color-interpolation-filters="sRGB">
<feFlood flood-opacity="0" result="BackgroundImageFix"/>
<feColorMatrix in="SourceAlpha" type="matrix" values="0 0 0 0 0 0 0 0 0 0 0 0 0 0 0 0 0 0 127 0" result="hardAlpha"/>
<feOffset dy="5"/>
<feGaussianBlur stdDeviation="8"/>
<feComposite in2="hardAlpha" operator="out"/>
<feColorMatrix type="matrix" values="0 0 0 0 0.368627 0 0 0 0 0.835294 0 0 0 0 0.658824 0 0 0 0.25 0"/>
<feBlend mode="normal" in2="BackgroundImageFix" result="effect1_dropShadow_217_7547"/>
<feBlend mode="normal" in="SourceGraphic" in2="effect1_dropShadow_217_7547" result="shape"/>
</filter>
</defs>
</svg>
