<svg width="44" height="45" viewBox="0 0 44 45" fill="none" xmlns="http://www.w3.org/2000/svg">
<path d="M26 18.75C25.59 18.75 25.25 18.41 25.25 18V14.5C25.25 13.42 24.58 12.75 23.5 12.75H20.5C19.42 12.75 18.75 13.42 18.75 14.5V18C18.75 18.41 18.41 18.75 18 18.75C17.59 18.75 17.25 18.41 17.25 18V14.5C17.25 12.59 18.59 11.25 20.5 11.25H23.5C25.41 11.25 26.75 12.59 26.75 14.5V18C26.75 18.41 26.41 18.75 26 18.75Z" fill="#3E474F"/>
<path d="M17.9998 27.78C17.5898 27.78 17.2498 27.44 17.2498 27.03C17.2498 26.61 17.5898 26.28 17.9998 26.28H29.7598C30.0598 26.28 30.2898 26.02 30.2598 25.72L29.5798 20.03C29.3398 18.09 28.9998 16.5 25.5998 16.5H18.3998C14.9998 16.5 14.6598 18.09 14.4298 20.03L13.5298 27.53C13.2398 29.99 13.9998 32 17.5098 32H26.4898C29.6498 32 30.5798 30.37 30.5298 28.25C30.5198 27.98 30.2998 27.78 30.0298 27.78H17.9998Z" fill="#3E474F"/>
</svg>
