<svg width="80" height="80" viewBox="5 5 44 44" fill="none" xmlns="http://www.w3.org/2000/svg">
<g filter="url(#filter0_d_217_7554)">
<path d="M28.85 13.9498V17.7498H27.35V13.9498C27.35 13.6798 27.11 13.5498 26.95 13.5498C26.9 13.5498 26.85 13.5598 26.8 13.5798L18.87 16.5698C18.34 16.7698 18 17.2698 18 17.8398V18.5098C17.09 19.1898 16.5 20.2798 16.5 21.5098V17.8398C16.5 16.6498 17.23 15.5898 18.34 15.1698L26.28 12.1698C26.5 12.0898 26.73 12.0498 26.95 12.0498C27.95 12.0498 28.85 12.8598 28.85 13.9498Z" fill="#5ED5A8"/>
<path d="M35.5002 24.5V25.5C35.5002 25.77 35.2902 25.99 35.0102 26H33.5502C33.0202 26 32.5402 25.61 32.5002 25.09C32.4702 24.78 32.5902 24.49 32.7902 24.29C32.9702 24.1 33.2202 24 33.4902 24H35.0002C35.2902 24.01 35.5002 24.23 35.5002 24.5Z" fill="#5ED5A8"/>
<path d="M33.48 22.95H34.5C35.05 22.95 35.5 22.5 35.5 21.95V21.51C35.5 19.44 33.81 17.75 31.74 17.75H20.26C19.41 17.75 18.63 18.03 18 18.51C17.09 19.19 16.5 20.28 16.5 21.51V28.24C16.5 30.31 18.19 32 20.26 32H31.74C33.81 32 35.5 30.31 35.5 28.24V28.05C35.5 27.5 35.05 27.05 34.5 27.05H33.63C32.67 27.05 31.75 26.46 31.5 25.53C31.29 24.77 31.54 24.04 32.04 23.55C32.41 23.17 32.92 22.95 33.48 22.95ZM28 22.75H21C20.59 22.75 20.25 22.41 20.25 22C20.25 21.59 20.59 21.25 21 21.25H28C28.41 21.25 28.75 21.59 28.75 22C28.75 22.41 28.41 22.75 28 22.75Z" fill="#5ED5A8"/>
</g>
<defs>
<filter id="filter0_d_217_7554" x="0.5" y="1.0498" width="51" height="51.9502" filterUnits="userSpaceOnUse" color-interpolation-filters="sRGB">
<feFlood flood-opacity="0" result="BackgroundImageFix"/>
<feColorMatrix in="SourceAlpha" type="matrix" values="0 0 0 0 0 0 0 0 0 0 0 0 0 0 0 0 0 0 127 0" result="hardAlpha"/>
<feOffset dy="5"/>
<feGaussianBlur stdDeviation="8"/>
<feComposite in2="hardAlpha" operator="out"/>
<feColorMatrix type="matrix" values="0 0 0 0 0.368627 0 0 0 0 0.835294 0 0 0 0 0.658824 0 0 0 0.25 0"/>
<feBlend mode="normal" in2="BackgroundImageFix" result="effect1_dropShadow_217_7554"/>
<feBlend mode="normal" in="SourceGraphic" in2="effect1_dropShadow_217_7554" result="shape"/>
</filter>
</defs>
</svg>
