<svg width="44" height="44" viewBox="3 0 44 44" fill="none" xmlns="http://www.w3.org/2000/svg">
<g filter="url(#filter0_d_217_7588)">
<path d="M24 12C21.38 12 19.25 14.13 19.25 16.75C19.25 19.32 21.26 21.4 23.88 21.49C23.96 21.48 24.04 21.48 24.1 21.49C24.12 21.49 24.13 21.49 24.15 21.49C24.16 21.49 24.16 21.49 24.17 21.49C26.73 21.4 28.74 19.32 28.75 16.75C28.75 14.13 26.62 12 24 12Z" fill="#3E474F"/>
<path fill-rule="evenodd" clip-rule="evenodd" d="M18.93 24.1499C21.74 22.2899 26.29 22.2899 29.08 24.1499C30.34 24.9899 31.03 26.1299 31.04 27.3599C31.04 28.5999 30.34 29.7399 29.08 30.5899C27.68 31.5299 25.84 31.9999 24 31.9999C22.16 31.9999 20.32 31.5299 18.92 30.5899C17.66 29.7499 16.96 28.6099 16.96 27.3799C16.96 26.1499 17.66 24.9999 18.93 24.1499ZM24.75 26.6299H26C26.41 26.6299 26.75 26.9699 26.75 27.3799C26.75 27.7899 26.41 28.1299 26 28.1299H24.75V29.3799C24.75 29.7899 24.41 30.1299 24 30.1299C23.59 30.1299 23.25 29.7899 23.25 29.3799V28.1299H22C21.59 28.1299 21.25 27.7899 21.25 27.3799C21.25 26.9699 21.59 26.6299 22 26.6299H23.25V25.3799C23.25 24.9699 23.59 24.6299 24 24.6299C24.41 24.6299 24.75 24.9699 24.75 25.3799V26.6299Z" fill="#5ED5A8"/>
</g>
<defs>
<filter id="filter0_d_217_7588" x="0.959961" y="1" width="46.0801" height="52" filterUnits="userSpaceOnUse" color-interpolation-filters="sRGB">
<feFlood flood-opacity="0" result="BackgroundImageFix"/>
<feColorMatrix in="SourceAlpha" type="matrix" values="0 0 0 0 0 0 0 0 0 0 0 0 0 0 0 0 0 0 127 0" result="hardAlpha"/>
<feOffset dy="5"/>
<feGaussianBlur stdDeviation="8"/>
<feComposite in2="hardAlpha" operator="out"/>
<feColorMatrix type="matrix" values="0 0 0 0 0.368627 0 0 0 0 0.835294 0 0 0 0 0.658824 0 0 0 0.25 0"/>
<feBlend mode="normal" in2="BackgroundImageFix" result="effect1_dropShadow_217_7588"/>
<feBlend mode="normal" in="SourceGraphic" in2="effect1_dropShadow_217_7588" result="shape"/>
</filter>
</defs>
</svg>
