<svg width="40" height="40" viewBox="0 0 40 40" fill="none" xmlns="http://www.w3.org/2000/svg">
<circle cx="20" cy="20" r="20" fill="url(#paint0_linear_217_8189)"/>
<path fill-rule="evenodd" clip-rule="evenodd" d="M11.3074 11.6496L13.4185 10.5279L13.6669 11.0264L21.3662 6.53946L20.8695 6.16554L20.2486 5.79163L20.0002 5.66699L7.33353 13.0206V13.2699L10.9348 11.2757L11.3074 11.6496ZM11.3074 16.3858L17.3923 12.7713L17.6407 13.2699L25.4642 8.78293L24.8433 8.40901L24.2224 8.15974L23.974 8.0351L7.3335 17.6322V17.8815L10.9348 15.8873L11.3074 16.3858ZM19.3792 14.0177L11.3074 18.6293L10.9348 18.1308L7.3335 20.2496V19.8757L25.9609 9.15686L26.2093 9.2815L26.8302 9.65541L27.4511 9.90469L19.6276 14.3916L19.3792 14.0177ZM11.3074 20.8728L21.3662 15.1395L21.6145 15.5134L29.4381 11.1511L28.8172 10.7771L28.1962 10.4032L27.9479 10.2786L7.3335 22.2438V22.4931L10.9348 20.4989L11.3074 20.8728ZM23.3531 16.2612L11.3074 23.2409L10.9348 22.7424L7.3335 24.8612V24.4873L29.9348 11.4004L30.3074 11.6496L30.8041 11.8989L31.425 12.2728L23.6015 16.7598L23.3531 16.2612ZM32.1701 12.7714L31.9217 12.5221L7.3335 26.8554V27.1047L10.9348 25.1105L11.3074 25.609L23.3531 18.5047L23.6015 19.0032L32.6668 13.8931V13.0206L32.1701 12.7714ZM10.9347 27.3539L8.94782 28.6003L8.57527 28.351L32.6668 14.5163V16.1366L23.6014 21.3713L23.353 20.8728L11.1831 27.8525L10.9347 27.3539ZM23.353 23.2409L23.6014 23.7395L32.6668 18.38V16.7598L10.5622 29.5974L10.9347 29.7221L12.9217 28.4757L13.2942 28.9742L23.353 23.2409ZM15.0329 29.7221L12.9218 30.8438L12.5492 30.7192L32.6669 19.1279V20.7481L23.6015 25.9829L23.3532 25.4844L15.2813 30.2206L15.0329 29.7221ZM14.9086 31.9655L17.0197 30.8438L17.2681 31.3424L23.353 27.8525L23.6014 28.3511L32.6667 23.1163V21.3713L14.536 31.8409L14.9086 31.9655ZM16.8956 33.2119L16.5231 32.9627L32.6669 23.7395V25.3598L23.6015 30.5945L23.3531 30.096L19.2551 32.4641L19.0067 31.9656L16.8956 33.2119ZM18.8825 34.3337L20.8694 33.0873L21.242 33.5858L23.3531 32.4641L23.6014 32.9626L32.6668 27.7279V25.9829L18.6341 34.209L18.8825 34.3337ZM22.8564 7.28728L23.4773 7.66119L15.6538 12.1482L15.4054 11.6496L11.3074 14.0177L10.9348 13.5192L7.3335 15.638V15.2641L21.9871 6.78873L22.2355 7.03801L22.8564 7.28728Z" fill="white"/>
<defs>
<linearGradient id="paint0_linear_217_8189" x1="0" y1="40" x2="40" y2="40" gradientUnits="userSpaceOnUse">
<stop stop-color="#001C3A"/>
<stop offset="0.6" stop-color="#001E3D"/>
<stop offset="0.7" stop-color="#001F3F"/>
<stop offset="1" stop-color="#002042"/>
</linearGradient>
</defs>
</svg>
