<svg width="24" height="24" viewBox="0 0 24 24" fill="none" xmlns="http://www.w3.org/2000/svg">
<circle cx="12" cy="12" r="12" fill="url(#paint0_linear_217_8206)"/>
<path fill-rule="evenodd" clip-rule="evenodd" d="M6.78425 6.98996L8.05092 6.31691L8.19994 6.61604L12.8195 3.92387L12.5215 3.69952L12.149 3.47517L11.9999 3.40039L4.39994 7.81256V7.96213L6.56072 6.76561L6.78425 6.98996ZM6.78422 9.83168L10.4352 7.66299L10.5842 7.96212L15.2783 5.26994L14.9058 5.0456L14.5332 4.89603L14.3842 4.82125L4.3999 10.5795V10.7291L6.56069 9.53255L6.78422 9.83168ZM11.6274 8.41083L6.78422 11.1778L6.56069 10.8787L4.3999 12.15V11.9256L15.5764 5.49431L15.7254 5.56909L16.0979 5.79344L16.4705 5.94301L11.7764 8.63518L11.6274 8.41083ZM6.78422 12.5239L12.8195 9.08386L12.9685 9.30821L17.6626 6.69082L17.2901 6.46647L16.9175 6.24212L16.7685 6.16734L4.3999 13.3465V13.496L6.56069 12.2995L6.78422 12.5239ZM14.0117 9.75692L6.78422 13.9448L6.56069 13.6456L4.3999 14.9169V14.6926L17.9607 6.8404L18.1842 6.98997L18.4823 7.13953L18.8548 7.36388L14.1607 10.0561L14.0117 9.75692ZM19.3019 7.663L19.1528 7.51343L4.3999 16.1134V16.263L6.56069 15.0665L6.78422 15.3656L14.0117 11.103L14.1607 11.4021L19.5999 8.33604V7.81256L19.3019 7.663ZM6.56066 16.4126L5.3685 17.1604L5.14498 17.0108L19.5999 8.70994V9.68212L14.1607 12.823L14.0116 12.5239L6.70968 16.7117L6.56066 16.4126ZM14.0116 13.9447L14.1606 14.2439L19.5998 11.0282V10.056L6.33709 17.7586L6.56062 17.8334L7.75278 17.0856L7.97631 17.3847L14.0116 13.9447ZM9.01954 17.8334L7.75287 18.5065L7.52934 18.4317L19.5999 11.4769V12.4491L14.1607 15.5899L14.0117 15.2908L9.16856 18.1326L9.01954 17.8334ZM8.94499 19.1795L10.2117 18.5065L10.3607 18.8056L14.0117 16.7117L14.1607 17.0108L19.5999 13.87V12.823L8.72146 19.1047L8.94499 19.1795ZM10.1372 19.9274L9.91371 19.7778L19.6 14.2439V15.216L14.1608 18.3569L14.0117 18.0578L11.5529 19.4787L11.4039 19.1795L10.1372 19.9274ZM11.3293 20.6004L12.5214 19.8526L12.745 20.1517L14.0116 19.4786L14.1607 19.7778L19.5999 16.6369V15.5899L11.1803 20.5256L11.3293 20.6004ZM13.7136 4.37256L14.0862 4.59691L9.39206 7.28908L9.24304 6.98995L6.78422 8.41082L6.56069 8.11169L4.3999 9.383V9.15865L13.1921 4.07343L13.3411 4.22299L13.7136 4.37256Z" fill="white"/>
<defs>
<linearGradient id="paint0_linear_217_8206" x1="0" y1="24" x2="24" y2="24" gradientUnits="userSpaceOnUse">
<stop stop-color="#001C3A"/>
<stop offset="0.6" stop-color="#001E3D"/>
<stop offset="0.7" stop-color="#001F3F"/>
<stop offset="1" stop-color="#002042"/>
</linearGradient>
</defs>
</svg>
