<svg width="24" height="24" viewBox="0 0 24 24" fill="none" xmlns="http://www.w3.org/2000/svg">
<path fill-rule="evenodd" clip-rule="evenodd" d="M12 24C5.4 24 0 18.6001 0 11.9402C0.06 5.34038 5.4 -0.0595036 12.06 0.000495204C18.66 0.060494 24 5.40038 24 12.1202C23.94 18.6601 18.6 24 12 24Z" fill="#E42D04"/>
<path fill-rule="evenodd" clip-rule="evenodd" d="M12.2338 20.8004C13.1048 20.8004 15.339 20.4077 17.3082 18.8371C19.5725 17.0311 19.7859 16.0238 19.9235 15.3744C19.9355 15.3179 19.9468 15.2641 19.959 15.2126C19.982 15.1153 19.9954 14.9832 20 14.8261C19.5244 14.7491 18.8577 14.705 18.0797 14.7973C16.8073 14.9483 15.8076 15.8167 15.4668 16.232C15.2774 15.2881 14.3534 13.4004 12.1722 13.4004C9.99094 13.4004 8.81449 15.2881 8.49891 16.232C8.29694 15.8796 7.54461 15.0994 6.15104 14.7973C5.28938 14.6106 4.53776 14.7029 4 14.86C4.04246 15.5619 4.27316 16.3105 4.88718 17.1004C5.94372 18.4596 7.58307 19.2989 8.31447 19.6733C8.39573 19.7149 8.46579 19.7508 8.52259 19.781C9.09063 20.083 10.6433 20.8004 12.2338 20.8004Z" fill="white"/>
<path fill-rule="evenodd" clip-rule="evenodd" d="M19.9982 14.7985C19.5228 14.7217 18.8566 14.6777 18.079 14.7698C16.8074 14.9204 15.8082 15.7863 15.4676 16.2004C15.2784 15.2592 14.3549 13.3769 12.1749 13.3769C9.99495 13.3769 8.81917 15.2592 8.50378 16.2004C8.30193 15.849 7.55004 15.071 6.15727 14.7698C5.29612 14.5836 4.54494 14.6756 4.00749 14.8324C3.96879 14.1941 4.08654 13.5947 4.2129 13.038C4.42484 12.1044 4.95722 10.8671 5.19692 10.3651C4.98245 9.85059 4.4854 8.39239 4.2129 6.67568C3.9404 4.95898 4.40214 3.80196 4.66706 3.43804C5.09599 3.55098 6.12039 3.90486 6.78649 4.41686C7.4526 4.92886 8.47699 6.06078 8.90592 6.56274C9.46101 6.41216 10.8891 6.11098 12.1608 6.11098C13.4324 6.11098 14.6587 6.41216 15.1128 6.56274C15.4913 6.11098 16.4223 5.04933 17.1187 4.41686C17.8151 3.78439 18.9479 3.47568 19.4274 3.40039C19.5535 3.56353 19.821 4.04039 19.8815 4.64274C19.9572 5.39568 19.7302 6.97686 19.4274 8.03098C19.1852 8.87427 18.8722 9.86313 18.7461 10.2522C18.8092 10.3902 19.0262 10.8394 19.3895 11.5322C19.7748 12.2667 20.0238 13.9224 19.9982 14.7985Z" fill="#FFAA35"/>
<path d="M13.7875 18.149C13.6975 18.2694 13.6 18.5003 13.5625 18.6006V18.563L13.45 17.6598C13.2375 17.6848 12.685 17.735 12.175 17.735C11.665 17.735 11.0625 17.6848 10.825 17.6598L10.7875 18.563C10.7625 18.5253 10.6975 18.4199 10.6375 18.2995C10.5625 18.149 10.3 17.9232 10.3 17.8103C10.3 17.72 10.175 17.5218 10.1125 17.434L10 17.2834H10.675L10.825 17.3963C10.95 17.3837 11.2675 17.3737 11.5375 17.434C11.8075 17.4942 11.975 17.2584 12.025 17.1329V16.5308C11.9125 16.4555 11.635 16.2824 11.425 16.1921C11.1625 16.0792 10.9 15.6276 10.975 15.176C11.05 14.7243 11.275 14.5738 11.425 14.6114C11.575 14.6491 12.55 14.5738 12.7 14.6114C12.85 14.6491 13.1125 14.7243 13.225 14.9125C13.3375 15.1007 13.2625 15.8534 13.0375 16.1168C12.8575 16.3275 12.5125 16.4805 12.3625 16.5308V17.1329C12.3625 17.2082 12.625 17.3963 12.6625 17.434C12.7 17.4716 13.2625 17.434 13.375 17.434C13.465 17.434 13.5375 17.3587 13.5625 17.3211H14.2V17.4716C14.2 17.5469 14.0875 17.8856 14.05 17.9232C14.0125 17.9608 13.9 17.9985 13.7875 18.149Z" fill="black"/>
<path d="M12.5809 17.9008L12.1999 18.2008L11.8951 17.9008L11.6285 18.0341L11.3999 17.8008H12.9999L12.7713 18.0674L12.5809 17.9008Z" fill="black"/>
<path d="M8.48078 11.7465C8.03447 11.5619 7.55097 11.4389 7.36501 11.4004C7.31541 11.426 7.21624 11.5081 7.21624 11.6312C7.21624 11.785 7.17904 11.9389 7.21624 12.2465C7.25343 12.5542 7.55097 12.7465 8.07166 12.9773C8.59236 13.2081 9.48498 13.4004 10.1172 13.4004C10.7495 13.4004 10.1544 12.7465 9.93128 12.5927C9.70813 12.4389 9.03867 11.9773 8.48078 11.7465Z" fill="black"/>
<path d="M9.09177 10.7258C8.75823 10.7855 8.29584 10.8004 8.10633 10.8004C7.91682 10.7756 7.51507 10.6587 7.42411 10.3903C7.3104 10.0548 7.61361 9.68205 7.99263 9.49566C8.37164 9.30927 8.86436 9.38382 9.16757 9.83116C9.47078 10.2785 9.50868 10.6513 9.09177 10.7258Z" fill="white"/>
<path d="M15.9189 11.5463C16.3652 11.3617 16.8487 11.2387 17.0347 11.2002C17.0843 11.2258 17.1835 11.3079 17.1835 11.431C17.1835 11.5848 17.2207 11.7387 17.1835 12.0463C17.1463 12.354 16.8487 12.5463 16.328 12.7771C15.8074 13.0079 14.9147 13.2002 14.2825 13.2002C13.6502 13.2002 14.2453 12.5463 14.4684 12.3925C14.6916 12.2387 15.361 11.7771 15.9189 11.5463Z" fill="black"/>
<path d="M14.708 10.7258C15.0416 10.7855 15.504 10.8004 15.6935 10.8004C15.883 10.7755 16.2847 10.6587 16.3757 10.3903C16.4894 10.0548 16.1862 9.68205 15.8072 9.49566C15.4282 9.30927 14.9354 9.38382 14.6322 9.83116C14.329 10.2785 14.2911 10.6513 14.708 10.7258Z" fill="white"/>
<path d="M6.48614 7.93527C6.2136 8.23295 5.69122 8.90272 5.46409 9.20039C5.31268 8.87791 4.97957 8.01713 4.85843 7.15388C4.7373 6.29062 4.8332 4.95853 4.89629 4.40039C5.06032 4.4128 5.5398 4.54923 6.14546 4.99574C6.75112 5.44225 7.63438 6.27326 8.00029 6.63295C7.60914 6.94303 6.75869 7.6376 6.48614 7.93527Z" fill="#FF8C30"/>
<path fill-rule="evenodd" clip-rule="evenodd" d="M4.80029 5.10917C5.39559 5.35759 6.17918 5.73733 6.50756 6.08054C6.84068 6.4287 7.13373 6.88957 7.3077 7.20039C7.56889 6.98383 7.82844 6.77578 8.00029 6.64059C7.6303 6.27967 6.73721 5.44582 6.12481 4.99778C5.51241 4.54974 5.02759 4.41284 4.86173 4.40039C4.84193 4.57424 4.81893 4.82294 4.80029 5.10917Z" fill="#FF9A32"/>
<path d="M17.314 7.93527C17.5865 8.23295 18.1089 8.90272 18.336 9.20039C18.4874 8.87791 18.8205 8.01713 18.9417 7.15388C19.0628 6.29062 18.9669 4.95853 18.9038 4.40039C18.7398 4.4128 18.2603 4.54923 17.6546 4.99574C17.049 5.44225 16.1657 6.27326 15.7998 6.63295C16.191 6.94303 17.0414 7.6376 17.314 7.93527Z" fill="#FF8C30"/>
<path fill-rule="evenodd" clip-rule="evenodd" d="M18.9998 5.10917C18.4045 5.35759 17.6209 5.73733 17.2925 6.08054C16.9594 6.4287 16.6663 6.88957 16.4924 7.20039C16.2312 6.98383 15.9717 6.77578 15.7998 6.64059C16.1698 6.27967 17.0629 5.44582 17.6753 4.99778C18.2877 4.54974 18.7725 4.41284 18.9383 4.40039C18.9582 4.57424 18.9811 4.82294 18.9998 5.10917Z" fill="#FF9A32"/>
</svg>
