<svg width="40" height="40" viewBox="0 0 40 40" fill="none" xmlns="http://www.w3.org/2000/svg">
<path fill-rule="evenodd" clip-rule="evenodd" d="M20 40C9 40 0 31.0002 0 19.9004C0.1 8.90064 9 -0.0991726 20.1 0.00082534C31.1 0.100823 40 9.00064 40 20.2004C39.9 31.1002 31 40 20 40Z" fill="#E42D04"/>
<path fill-rule="evenodd" clip-rule="evenodd" d="M20.3895 34.6673C21.8411 34.6673 25.5649 34.0129 28.8468 31.3952C32.6207 28.3851 32.9763 26.7064 33.2057 25.624C33.2256 25.5298 33.2446 25.4401 33.2649 25.3544C33.3031 25.1922 33.3255 24.9719 33.3332 24.7102C32.5404 24.5818 31.4294 24.5083 30.1327 24.6622C28.0121 24.9139 26.3459 26.3612 25.7778 27.0534C25.4622 25.4802 23.9222 22.334 20.2868 22.334C16.6514 22.334 14.6906 25.4802 14.1647 27.0534C13.8281 26.466 12.5742 25.1656 10.2516 24.6622C8.81548 24.351 7.56278 24.5048 6.6665 24.7667C6.73727 25.9365 7.12177 27.1841 8.14514 28.5007C9.90604 30.766 12.6383 32.1648 13.8573 32.7889C13.9927 32.8582 14.1095 32.918 14.2042 32.9683C15.1509 33.4717 17.7386 34.6673 20.3895 34.6673Z" fill="white"/>
<path fill-rule="evenodd" clip-rule="evenodd" d="M33.3301 24.6638C32.5379 24.5358 31.4275 24.4625 30.1316 24.616C28.0122 24.867 26.3469 26.3101 25.7792 27.0003C25.4638 25.4317 23.9247 22.2944 20.2914 22.2944C16.6581 22.2944 14.6985 25.4317 14.1728 27.0003C13.8364 26.4147 12.5832 25.118 10.262 24.616C8.8267 24.3057 7.57473 24.459 6.67898 24.7203C6.61449 23.6565 6.81074 22.6575 7.02134 21.7297C7.37458 20.1737 8.26188 18.1114 8.66138 17.2748C8.30392 16.4173 7.4755 13.987 7.02134 11.1258C6.56718 8.26464 7.33673 6.33627 7.77828 5.72974C8.49316 5.91797 10.2005 6.50778 11.3107 7.36111C12.4208 8.21444 14.1281 10.101 14.843 10.9376C15.7682 10.6866 18.1483 10.1846 20.2678 10.1846C22.3872 10.1846 24.431 10.6866 25.1879 10.9376C25.8187 10.1846 27.3704 8.41523 28.531 7.36111C29.6917 6.30699 31.5797 5.79248 32.3788 5.66699C32.589 5.93889 33.0348 6.73366 33.1357 7.73758C33.2619 8.99248 32.8834 11.6278 32.3788 13.3846C31.9751 14.7901 31.4536 16.4382 31.2434 17.0866C31.3485 17.3167 31.7102 18.0654 32.3157 19.2199C32.9579 20.4442 33.3729 23.2036 33.3301 24.6638Z" fill="#FFAA35"/>
<path d="M22.979 30.248C22.829 30.4487 22.6665 30.8334 22.604 31.0007V30.9379L22.4165 29.4326C22.0624 29.4744 21.1415 29.558 20.2915 29.558C19.4415 29.558 18.4373 29.4744 18.0415 29.4326L17.979 30.9379C17.9373 30.8752 17.829 30.6996 17.729 30.4989C17.604 30.248 17.1665 29.8716 17.1665 29.6835C17.1665 29.5329 16.9582 29.2027 16.854 29.0563L16.6665 28.8054H17.7915L18.0415 28.9935C18.2498 28.9726 18.779 28.9559 19.229 29.0563C19.679 29.1566 19.9581 28.7636 20.0415 28.5545V27.5509C19.854 27.4255 19.3915 27.137 19.0415 26.9864C18.604 26.7983 18.1665 26.0456 18.2915 25.2929C18.4165 24.5403 18.7915 24.2894 19.0415 24.3521C19.2915 24.4148 20.9165 24.2894 21.1665 24.3521C21.4165 24.4148 21.854 24.5403 22.0415 24.8539C22.229 25.1675 22.104 26.4219 21.729 26.861C21.429 27.2122 20.854 27.4673 20.604 27.5509V28.5545C20.604 28.6799 21.0415 28.9935 21.104 29.0563C21.1665 29.119 22.104 29.0563 22.2915 29.0563C22.4415 29.0563 22.5624 28.9308 22.604 28.8681H23.6665V29.119C23.6665 29.2444 23.479 29.8089 23.4165 29.8716C23.354 29.9344 23.1665 29.9971 22.979 30.248Z" fill="black"/>
<path d="M20.9683 29.8337L20.3333 30.3337L19.8254 29.8337L19.381 30.0559L19 29.667H21.6667L21.2857 30.1114L20.9683 29.8337Z" fill="black"/>
<path d="M14.1351 19.5769C13.3913 19.2692 12.5854 19.0641 12.2755 19C12.1928 19.0427 12.0275 19.1795 12.0275 19.3846C12.0275 19.641 11.9656 19.8974 12.0275 20.4103C12.0895 20.9231 12.5854 21.2436 13.4533 21.6282C14.3211 22.0128 15.8088 22.3333 16.8626 22.3333C17.9164 22.3333 16.9246 21.2436 16.5526 20.9872C16.1807 20.7308 15.0649 19.9615 14.1351 19.5769Z" fill="black"/>
<path d="M15.1528 17.8761C14.5969 17.9755 13.8262 18.0003 13.5104 18.0003C13.1945 17.9589 12.525 17.7642 12.3733 17.3169C12.1838 16.7577 12.6892 16.1364 13.3209 15.8258C13.9526 15.5151 14.7738 15.6394 15.2791 16.3849C15.7845 17.1305 15.8476 17.7518 15.1528 17.8761Z" fill="white"/>
<path d="M26.5312 19.2439C27.2751 18.9362 28.0809 18.7311 28.3908 18.667C28.4735 18.7097 28.6388 18.8465 28.6388 19.0516C28.6388 19.308 28.7008 19.5644 28.6388 20.0772C28.5768 20.5901 28.0809 20.9106 27.2131 21.2952C26.3453 21.6798 24.8576 22.0003 23.8038 22.0003C22.75 22.0003 23.7418 20.9106 24.1137 20.6542C24.4856 20.3978 25.6014 19.6285 26.5312 19.2439Z" fill="black"/>
<path d="M24.5136 17.8761C25.0694 17.9755 25.8401 18.0003 26.156 18.0003C26.4718 17.9589 27.1414 17.7642 27.293 17.3169C27.4825 16.7577 26.9771 16.1364 26.3455 15.8258C25.7138 15.5151 24.8926 15.6394 24.3872 16.3849C23.8819 17.1305 23.8187 17.7518 24.5136 17.8761Z" fill="white"/>
<path d="M10.8098 13.2255C10.3555 13.7216 9.48487 14.8379 9.10634 15.334C8.85398 14.7965 8.29879 13.3619 8.0969 11.9231C7.89502 10.4844 8.05485 8.26422 8.15999 7.33398C8.43338 7.35466 9.23251 7.58205 10.2419 8.32623C11.2514 9.07042 12.7235 10.4554 13.3333 11.0549C12.6814 11.5717 11.264 12.7293 10.8098 13.2255Z" fill="#FF8C30"/>
<path fill-rule="evenodd" clip-rule="evenodd" d="M8 8.51529C8.99216 8.92932 10.2981 9.56221 10.8454 10.1342C11.4006 10.7145 11.8891 11.4826 12.179 12.0007C12.6143 11.6397 13.0469 11.293 13.3333 11.0676C12.7167 10.4661 11.2282 9.07636 10.2075 8.32963C9.18686 7.5829 8.37883 7.35473 8.1024 7.33398C8.06939 7.62374 8.03107 8.03824 8 8.51529Z" fill="#FF9A32"/>
<path d="M28.8571 13.2255C29.3113 13.7216 30.182 14.8379 30.5605 15.334C30.8129 14.7965 31.368 13.3619 31.5699 11.9231C31.7718 10.4844 31.612 8.26422 31.5068 7.33398C31.2334 7.35466 30.4343 7.58205 29.4249 8.32623C28.4155 9.07042 26.9433 10.4554 26.3335 11.0549C26.9855 11.5717 28.4028 12.7293 28.8571 13.2255Z" fill="#FF8C30"/>
<path fill-rule="evenodd" clip-rule="evenodd" d="M31.6668 8.51529C30.6746 8.92932 29.3687 9.56221 28.8214 10.1342C28.2661 10.7145 27.7777 11.4826 27.4879 12.0007C27.0526 11.6397 26.6199 11.293 26.3335 11.0676C26.9501 10.4661 28.4386 9.07636 29.4593 8.32963C30.4799 7.5829 31.2879 7.35473 31.5644 7.33398C31.5974 7.62374 31.6357 8.03824 31.6668 8.51529Z" fill="#FF9A32"/>
</svg>
