<svg width="40" height="40" viewBox="0 0 40 40" fill="none" xmlns="http://www.w3.org/2000/svg">
<path fill-rule="evenodd" clip-rule="evenodd" d="M20 40C9 40 0 31.0002 0 19.9004C0.1 8.90064 9 -0.0991726 20.1 0.00082534C31.1 0.100823 40 9.00064 40 20.2004C39.9 31.1002 31 40 20 40" fill="#E42D04"/>
<path fill-rule="evenodd" clip-rule="evenodd" d="M20.389 34.6673C21.8406 34.6673 25.5644 34.0129 28.8464 31.3952C32.6202 28.3851 32.9758 26.7064 33.2052 25.624C33.2251 25.5298 33.2441 25.4401 33.2644 25.3544C33.3026 25.1922 33.325 24.9719 33.3327 24.7102C32.54 24.5818 31.4289 24.5083 30.1323 24.6622C28.0116 24.9139 26.3454 26.3612 25.7773 27.0534C25.4618 25.4802 23.9218 22.334 20.2863 22.334C16.6509 22.334 14.6902 25.4802 14.1642 27.0534C13.8276 26.466 12.5737 25.1656 10.2511 24.6622C8.81499 24.351 7.56229 24.5048 6.66602 24.7667C6.73678 25.9365 7.12128 27.1841 8.14465 28.5007C9.90555 30.766 12.6378 32.1648 13.8568 32.7889C13.9922 32.8582 14.109 32.918 14.2037 32.9683C15.1504 33.4717 17.7381 34.6673 20.389 34.6673Z" fill="white"/>
<path fill-rule="evenodd" clip-rule="evenodd" d="M33.3297 24.6638C32.5374 24.5358 31.427 24.4625 30.1311 24.616C28.0117 24.867 26.3464 26.3101 25.7787 27.0003C25.4633 25.4317 23.9242 22.2944 20.2909 22.2944C16.6576 22.2944 14.698 25.4317 14.1723 27.0003C13.8359 26.4147 12.5827 25.118 10.2615 24.616C8.82622 24.3057 7.57424 24.459 6.67849 24.7203C6.614 23.6565 6.81025 22.6575 7.02085 21.7297C7.37409 20.1737 8.26139 18.1114 8.66089 17.2748C8.30344 16.4173 7.47501 13.987 7.02085 11.1258C6.56669 8.26464 7.33624 6.33627 7.77779 5.72974C8.49267 5.91797 10.2 6.50778 11.3102 7.36111C12.4203 8.21444 14.1277 10.101 14.8425 10.9376C15.7677 10.6866 18.1478 10.1846 20.2673 10.1846C22.3867 10.1846 24.4305 10.6866 25.1874 10.9376C25.8182 10.1846 27.3699 8.41523 28.5305 7.36111C29.6912 6.30699 31.5792 5.79248 32.3783 5.66699C32.5885 5.93889 33.0343 6.73366 33.1353 7.73758C33.2614 8.99248 32.8829 11.6278 32.3783 13.3846C31.9746 14.7901 31.4531 16.4382 31.2429 17.0866C31.348 17.3167 31.7097 18.0654 32.3152 19.2199C32.9574 20.4442 33.3724 23.2036 33.3297 24.6638Z" fill="#FFAA35"/>
<path d="M22.9785 30.248C22.8285 30.4487 22.666 30.8334 22.6035 31.0007V30.9379L22.416 29.4326C22.0619 29.4744 21.141 29.558 20.291 29.558C19.441 29.558 18.4369 29.4744 18.041 29.4326L17.9785 30.9379C17.9369 30.8752 17.8285 30.6996 17.7285 30.4989C17.6035 30.248 17.166 29.8716 17.166 29.6835C17.166 29.5329 16.9577 29.2027 16.8535 29.0563L16.666 28.8054H17.791L18.041 28.9935C18.2494 28.9726 18.7785 28.9559 19.2285 29.0563C19.6785 29.1566 19.9576 28.7636 20.041 28.5545V27.5509C19.8535 27.4255 19.391 27.137 19.041 26.9864C18.6035 26.7983 18.166 26.0456 18.291 25.2929C18.416 24.5403 18.791 24.2894 19.041 24.3521C19.291 24.4148 20.916 24.2894 21.166 24.3521C21.416 24.4148 21.8535 24.5403 22.041 24.8539C22.2285 25.1675 22.1035 26.4219 21.7285 26.861C21.4285 27.2122 20.8535 27.4673 20.6035 27.5509V28.5545C20.6035 28.6799 21.041 28.9935 21.1035 29.0563C21.166 29.119 22.1035 29.0563 22.291 29.0563C22.441 29.0563 22.5619 28.9308 22.6035 28.8681H23.666V29.119C23.666 29.2444 23.4785 29.8089 23.416 29.8716C23.3535 29.9344 23.166 29.9971 22.9785 30.248Z" fill="black"/>
<path d="M20.9683 29.8337L20.3333 30.3337L19.8254 29.8337L19.381 30.0559L19 29.667H21.6667L21.2857 30.1114L20.9683 29.8337Z" fill="black"/>
<path d="M14.1351 19.5769C13.3913 19.2692 12.5854 19.0641 12.2755 19C12.1928 19.0427 12.0275 19.1795 12.0275 19.3846C12.0275 19.641 11.9656 19.8974 12.0275 20.4103C12.0895 20.9231 12.5854 21.2436 13.4533 21.6282C14.3211 22.0128 15.8088 22.3333 16.8626 22.3333C17.9164 22.3333 16.9246 21.2436 16.5526 20.9872C16.1807 20.7308 15.0649 19.9615 14.1351 19.5769Z" fill="black"/>
<path d="M15.1518 17.8761C14.5959 17.9755 13.8253 18.0003 13.5094 18.0003C13.1936 17.9589 12.524 17.7642 12.3724 17.3169C12.1829 16.7577 12.6882 16.1364 13.3199 15.8258C13.9516 15.5151 14.7728 15.6394 15.2781 16.3849C15.7835 17.1305 15.8467 17.7518 15.1518 17.8761Z" fill="white"/>
<path d="M26.5302 19.2439C27.2741 18.9362 28.0799 18.7311 28.3899 18.667C28.4726 18.7097 28.6378 18.8465 28.6378 19.0516C28.6378 19.308 28.6998 19.5644 28.6378 20.0772C28.5758 20.5901 28.0799 20.9106 27.2121 21.2952C26.3443 21.6798 24.8566 22.0003 23.8028 22.0003C22.749 22.0003 23.7408 20.9106 24.1127 20.6542C24.4847 20.3978 25.6004 19.6285 26.5302 19.2439Z" fill="black"/>
<path d="M24.5136 17.8761C25.0694 17.9755 25.8401 18.0003 26.156 18.0003C26.4718 17.9589 27.1414 17.7642 27.293 17.3169C27.4825 16.7577 26.9771 16.1364 26.3455 15.8258C25.7138 15.5151 24.8926 15.6394 24.3872 16.3849C23.8819 17.1305 23.8187 17.7518 24.5136 17.8761Z" fill="white"/>
<path d="M10.8098 13.2255C10.3555 13.7216 9.48487 14.8379 9.10634 15.334C8.85398 14.7965 8.29879 13.3619 8.0969 11.9231C7.89502 10.4844 8.05485 8.26422 8.15999 7.33398C8.43338 7.35466 9.23251 7.58205 10.2419 8.32623C11.2514 9.07042 12.7235 10.4554 13.3333 11.0549C12.6814 11.5717 11.264 12.7293 10.8098 13.2255Z" fill="#FF8C30"/>
<path fill-rule="evenodd" clip-rule="evenodd" d="M8 8.51529C8.99216 8.92932 10.2981 9.56221 10.8454 10.1342C11.4006 10.7145 11.8891 11.4826 12.179 12.0007C12.6143 11.6397 13.0469 11.293 13.3333 11.0676C12.7167 10.4661 11.2282 9.07636 10.2075 8.32963C9.18686 7.5829 8.37883 7.35473 8.1024 7.33398C8.06939 7.62374 8.03107 8.03824 8 8.51529Z" fill="#FF9A32"/>
<path d="M28.8556 13.2255C29.3099 13.7216 30.1805 14.8379 30.559 15.334C30.8114 14.7965 31.3666 13.3619 31.5685 11.9231C31.7704 10.4844 31.6105 8.26422 31.5054 7.33398C31.232 7.35466 30.4329 7.58205 29.4234 8.32623C28.414 9.07042 26.9419 10.4554 26.332 11.0549C26.984 11.5717 28.4014 12.7293 28.8556 13.2255Z" fill="#FF8C30"/>
<path fill-rule="evenodd" clip-rule="evenodd" d="M31.6654 8.51529C30.6732 8.92932 29.3672 9.56221 28.8199 10.1342C28.2647 10.7145 27.7763 11.4826 27.4864 12.0007C27.0511 11.6397 26.6185 11.293 26.332 11.0676C26.9486 10.4661 28.4371 9.07636 29.4578 8.32963C30.4785 7.5829 31.2864 7.35473 31.5629 7.33398C31.596 7.62374 31.6342 8.03824 31.6654 8.51529Z" fill="#FF9A32"/>
</svg>
