<svg width="40" height="40" viewBox="0 0 40 40" fill="none" xmlns="http://www.w3.org/2000/svg">
<circle cx="20" cy="20" r="20" fill="#5B6DEE"/>
<path fill-rule="evenodd" clip-rule="evenodd" d="M14.5451 19.1279C15.2315 19.0053 15.9277 18.9454 16.6251 18.949V18.9502C18.0313 18.9502 19.067 19.085 20.1026 19.2198C21.1382 19.3547 22.1738 19.4895 23.5801 19.4895C27.3888 19.4895 30.0001 17.9437 30.0001 14.7441C30.0001 11.5458 27.8251 10 24.6501 10C19.4651 10 15.1101 13.934 14.5451 19.1279ZM10 25.5892C10 22.3908 12.6112 20.8438 16.42 20.8438C17.8255 20.8438 18.861 20.9789 19.8967 21.114C20.9326 21.2492 21.9686 21.3844 23.375 21.3844C24.0724 21.3879 24.7686 21.328 25.455 21.2054C24.89 26.4006 20.535 30.3333 15.35 30.3333C12.175 30.3333 10 28.7876 10 25.5892Z" fill="white"/>
</svg>
