<svg width="24" height="24" viewBox="0 0 24 24" fill="none" xmlns="http://www.w3.org/2000/svg">
<circle cx="12" cy="12" r="12" fill="#5B6DEE"/>
<path fill-rule="evenodd" clip-rule="evenodd" d="M8.727 11.4767C9.13884 11.4032 9.55658 11.3672 9.975 11.3694V11.3701C10.8188 11.3701 11.4401 11.451 12.0615 11.5319C12.6829 11.6128 13.3043 11.6937 14.148 11.6937C16.4333 11.6937 18 10.7662 18 8.84647C18 6.92745 16.695 6 14.79 6C11.679 6 9.066 8.36038 8.727 11.4767ZM6 15.3535C6 13.4345 7.56675 12.5063 9.852 12.5063C10.6953 12.5063 11.3166 12.5874 11.938 12.6684C12.5595 12.7495 13.1812 12.8306 14.025 12.8306C14.4434 12.8327 14.8612 12.7968 15.273 12.7233C14.934 15.8404 12.321 18.2 9.21 18.2C7.305 18.2 6 17.2725 6 15.3535Z" fill="white"/>
</svg>
