<svg width="52" height="53" viewBox="0 0 52 53" fill="none" xmlns="http://www.w3.org/2000/svg">
<g filter="url(#filter0_d_217_7627)">
<path d="M20.7102 14.14L20.7802 17.93C20.7902 18.45 20.4602 19.14 20.0402 19.45L17.5602 21.33C15.9702 22.53 16.2302 24 18.1302 24.6L21.3602 25.61C21.9002 25.78 22.4702 26.37 22.6102 26.92L23.3802 29.86C23.9902 32.18 25.5102 32.41 26.7702 30.37L28.5302 27.52C28.8502 27 29.6102 26.61 30.2102 26.64L33.5502 26.81C35.9402 26.93 36.6202 25.55 35.0602 23.73L33.0802 21.43C32.7102 21 32.5402 20.2 32.7102 19.66L33.7302 16.42C34.3202 14.52 33.2602 13.47 31.3702 14.09L28.4202 15.06C27.9202 15.22 27.1702 15.11 26.7502 14.8L23.6702 12.58C22.0002 11.39 20.6702 12.09 20.7102 14.14Z" fill="#5ED5A8"/>
<path d="M16.5602 30.4702L19.5902 27.4402C19.8802 27.1502 20.3602 27.1502 20.6502 27.4402C20.9402 27.7302 20.9402 28.2102 20.6502 28.5002L17.6202 31.5302C17.4702 31.6802 17.2802 31.7502 17.0902 31.7502C16.9002 31.7502 16.7102 31.6802 16.5602 31.5302C16.2702 31.2402 16.2702 30.7602 16.5602 30.4702Z" fill="#3E474F"/>
</g>
<defs>
<filter id="filter0_d_217_7627" x="0.342773" y="1" width="51.5562" height="51.7617" filterUnits="userSpaceOnUse" color-interpolation-filters="sRGB">
<feFlood flood-opacity="0" result="BackgroundImageFix"/>
<feColorMatrix in="SourceAlpha" type="matrix" values="0 0 0 0 0 0 0 0 0 0 0 0 0 0 0 0 0 0 127 0" result="hardAlpha"/>
<feOffset dy="5"/>
<feGaussianBlur stdDeviation="8"/>
<feComposite in2="hardAlpha" operator="out"/>
<feColorMatrix type="matrix" values="0 0 0 0 0.368627 0 0 0 0 0.835294 0 0 0 0 0.658824 0 0 0 0.25 0"/>
<feBlend mode="normal" in2="BackgroundImageFix" result="effect1_dropShadow_217_7627"/>
<feBlend mode="normal" in="SourceGraphic" in2="effect1_dropShadow_217_7627" result="shape"/>
</filter>
</defs>
</svg>
