<svg width="40" height="40" viewBox="0 0 40 40" fill="none" xmlns="http://www.w3.org/2000/svg">
<rect width="40" height="40" rx="12" fill="#4E60FF"/>
<path d="M26.6666 27.5V25.8333C26.6666 24.9493 26.3155 24.1014 25.6903 23.4763C25.0652 22.8512 24.2174 22.5 23.3333 22.5H16.6666C15.7826 22.5 14.9347 22.8512 14.3096 23.4763C13.6845 24.1014 13.3333 24.9493 13.3333 25.8333V27.5" stroke="white" stroke-width="1.5" stroke-linecap="round" stroke-linejoin="round"/>
<path d="M20 19.1667C21.8409 19.1667 23.3333 17.6743 23.3333 15.8333C23.3333 13.9924 21.8409 12.5 20 12.5C18.159 12.5 16.6666 13.9924 16.6666 15.8333C16.6666 17.6743 18.159 19.1667 20 19.1667Z" stroke="white" stroke-width="1.5" stroke-linecap="round" stroke-linejoin="round"/>
</svg>
