<svg width="79" height="40" viewBox="0 0 79 40" fill="none" xmlns="http://www.w3.org/2000/svg">
    <path d="M1.67 15.432c-.5 0-.906-.15-1.22-.45-.3-.313-.45-.72-.45-1.22V1.773c0-.5.136-.885.407-1.156C.678.346 1.063.21 1.563.21h7.365c.542 0 .942.107 1.199.321.257.215.385.55.385 1.007 0 .442-.128.77-.385.985-.257.214-.657.32-1.2.32h-5.63v3.469H8.5c.542 0 .942.107 1.198.321.257.214.386.55.386 1.006 0 .443-.129.771-.386.985-.256.214-.656.321-1.198.321H3.297v4.817c0 .514-.15.921-.45 1.22-.285.3-.678.45-1.177.45zM16.838 15.475c-1.113 0-2.09-.221-2.933-.663a4.818 4.818 0 0 1-1.948-1.906c-.457-.828-.685-1.798-.685-2.912 0-1.113.228-2.076.685-2.89A4.645 4.645 0 0 1 13.905 5.2c.843-.443 1.82-.664 2.934-.664 1.113 0 2.09.221 2.933.664a4.644 4.644 0 0 1 1.948 1.905c.457.814.685 1.777.685 2.89 0 1.114-.228 2.084-.685 2.912a4.817 4.817 0 0 1-1.948 1.905c-.842.443-1.82.664-2.933.664zm0-2.462c1.57 0 2.355-1.006 2.355-3.019 0-1.013-.206-1.77-.62-2.269-.4-.5-.978-.75-1.735-.75-1.57 0-2.355 1.007-2.355 3.02 0 2.012.785 3.018 2.355 3.018zM29.425 15.475c-1.113 0-2.091-.221-2.933-.663a4.817 4.817 0 0 1-1.948-1.906c-.457-.828-.686-1.798-.686-2.912 0-1.113.229-2.076.686-2.89A4.645 4.645 0 0 1 26.492 5.2c.842-.443 1.82-.664 2.933-.664 1.113 0 2.09.221 2.933.664a4.645 4.645 0 0 1 1.948 1.905c.457.814.685 1.777.685 2.89 0 1.114-.228 2.084-.685 2.912a4.817 4.817 0 0 1-1.948 1.905c-.842.443-1.82.664-2.933.664zm0-2.462c1.57 0 2.355-1.006 2.355-3.019 0-1.013-.207-1.77-.621-2.269-.4-.5-.978-.75-1.734-.75-1.57 0-2.355 1.007-2.355 3.02 0 2.012.785 3.018 2.355 3.018zM45.93.103c.499 0 .898.136 1.198.407.314.271.471.628.471 1.07v12.332c0 .457-.15.828-.45 1.114-.285.27-.67.406-1.156.406-.485 0-.877-.135-1.177-.406-.286-.286-.428-.657-.428-1.114v-.171c-.314.542-.764.97-1.35 1.285-.57.3-1.22.45-1.947.45-.9 0-1.706-.23-2.42-.686-.699-.47-1.248-1.12-1.648-1.948-.386-.842-.578-1.806-.578-2.89 0-1.085.193-2.034.578-2.848.4-.828.949-1.463 1.648-1.905.7-.443 1.506-.664 2.42-.664.713 0 1.356.15 1.926.45.586.3 1.035.72 1.35 1.263V1.516c0-.428.142-.77.427-1.027.286-.257.664-.386 1.135-.386zm-3.897 12.91c.756 0 1.334-.257 1.734-.77.414-.529.62-1.278.62-2.249 0-.97-.206-1.712-.62-2.226-.4-.514-.978-.77-1.734-.77-.757 0-1.342.256-1.756.77-.414.5-.62 1.227-.62 2.184 0 .97.206 1.727.62 2.269.414.528 1 .792 1.756.792z" fill="#2B2B43"/>
    <path d="M9.484 20.657c.5 0 .9.135 1.2.406.313.271.47.628.47 1.07v12.333c0 .456-.15.827-.45 1.113-.285.271-.67.407-1.155.407-.486 0-.878-.136-1.178-.407-.285-.286-.428-.657-.428-1.113v-.172c-.314.543-.764.97-1.349 1.285-.57.3-1.22.45-1.948.45-.9 0-1.706-.229-2.42-.686-.699-.47-1.248-1.12-1.648-1.948C.193 32.553 0 31.59 0 30.505c0-1.085.193-2.034.578-2.848.4-.827.95-1.463 1.649-1.905.699-.442 1.505-.664 2.419-.664.713 0 1.356.15 1.927.45.585.3 1.034.72 1.348 1.263V22.07c0-.429.143-.771.429-1.028.285-.257.663-.385 1.134-.385zm-3.896 12.91c.756 0 1.334-.258 1.734-.771.414-.528.62-1.278.62-2.248 0-.97-.206-1.713-.62-2.227-.4-.514-.978-.77-1.734-.77-.757 0-1.342.256-1.756.77-.414.5-.62 1.228-.62 2.184 0 .97.206 1.727.62 2.27.414.527 1 .791 1.756.791zM22.08 32.731c.285 0 .513.115.684.343.186.228.279.521.279.878 0 .242-.072.47-.215.685-.142.2-.342.371-.599.514a8.044 8.044 0 0 1-1.691.642 7.523 7.523 0 0 1-1.777.236c-1.142 0-2.141-.222-2.998-.664a4.68 4.68 0 0 1-1.948-1.884c-.457-.828-.685-1.799-.685-2.912 0-1.07.221-2.02.664-2.847a4.79 4.79 0 0 1 1.84-1.927c.786-.471 1.678-.707 2.677-.707.956 0 1.791.214 2.505.643.728.413 1.292 1.013 1.691 1.798.4.77.6 1.677.6 2.719 0 .314-.079.557-.236.728-.142.157-.35.235-.62.235h-5.995c.1.843.357 1.456.77 1.842.414.37 1.007.556 1.777.556.414 0 .785-.05 1.114-.15.328-.1.692-.235 1.092-.406.2-.086.392-.157.578-.214.185-.072.35-.108.492-.108zm-3.683-5.416c-.614 0-1.106.2-1.478.6-.37.385-.592.948-.663 1.69h4.132c-.043-.756-.236-1.327-.578-1.712-.329-.385-.8-.578-1.413-.578zM26.686 35.986c-.47 0-.863-.129-1.177-.386-.3-.257-.45-.635-.45-1.134v-12.29c0-.499.15-.877.45-1.134.314-.257.706-.385 1.177-.385.457 0 .835.128 1.135.385.314.257.471.635.471 1.135v12.289c0 .5-.157.877-.47 1.134-.3.257-.679.386-1.136.386zM32.394 35.986c-.47 0-.863-.129-1.177-.386-.3-.257-.45-.635-.45-1.134V26.65c0-.5.157-.878.471-1.134.314-.257.7-.386 1.156-.386.457 0 .835.129 1.135.386.314.256.47.635.47 1.134v7.815c0 .5-.156.877-.47 1.134-.3.257-.678.386-1.135.386zm0-12.568c-.57 0-1.02-.142-1.349-.428-.328-.3-.492-.7-.492-1.199 0-.5.164-.892.492-1.177.329-.286.778-.428 1.35-.428.556 0 .998.15 1.327.45.342.285.513.67.513 1.155 0 .5-.164.9-.492 1.2-.328.285-.778.427-1.349.427zM43.647 26.052c.143-.3.328-.521.557-.664.242-.157.5-.236.77-.236.4 0 .757.136 1.07.407.315.257.472.571.472.942 0 .214-.05.421-.15.621l-3.854 7.9a1.597 1.597 0 0 1-.642.728 1.88 1.88 0 0 1-.92.236 1.88 1.88 0 0 1-.921-.236 1.728 1.728 0 0 1-.664-.728l-3.854-7.9a1.464 1.464 0 0 1-.128-.578c0-.385.164-.713.492-.985.343-.27.721-.407 1.135-.407.3 0 .571.079.814.236.242.143.435.364.578.664l2.633 5.759 2.612-5.76zM56.138 32.731c.285 0 .513.115.685.343.185.228.278.521.278.878 0 .242-.071.47-.214.685-.143.2-.343.371-.6.514a8.04 8.04 0 0 1-1.69.642 7.523 7.523 0 0 1-1.778.236c-1.142 0-2.14-.222-2.997-.664a4.68 4.68 0 0 1-1.948-1.884c-.457-.828-.686-1.799-.686-2.912 0-1.07.222-2.02.664-2.847a4.791 4.791 0 0 1 1.841-1.927c.785-.471 1.677-.707 2.677-.707.956 0 1.79.214 2.504.643.728.413 1.292 1.013 1.692 1.798.4.77.6 1.677.6 2.719 0 .314-.08.557-.236.728-.143.157-.35.235-.621.235h-5.995c.1.843.357 1.456.771 1.842.414.37 1.006.556 1.777.556.414 0 .785-.05 1.113-.15.328-.1.692-.235 1.092-.406.2-.086.393-.157.578-.214.186-.072.35-.108.493-.108zm-3.683-5.416c-.614 0-1.106.2-1.477.6-.371.385-.592.948-.664 1.69h4.132c-.043-.756-.235-1.327-.578-1.712-.328-.385-.8-.578-1.413-.578zM65.39 25.131c.429-.028.764.072 1.007.3.257.214.385.542.385.985 0 .47-.114.82-.342 1.049-.228.228-.635.37-1.22.428l-.643.064c-.785.086-1.356.343-1.712.77-.343.43-.514.979-.514 1.65v4.089c0 .5-.157.877-.471 1.134-.3.257-.678.386-1.135.386-.471 0-.864-.129-1.178-.386-.3-.257-.45-.635-.45-1.134v-7.858c0-.47.158-.835.472-1.091.314-.257.692-.386 1.135-.386.428 0 .785.129 1.07.386.286.242.428.585.428 1.027v.578c.257-.613.642-1.085 1.156-1.413a3.684 3.684 0 0 1 1.713-.556l.3-.022zM75.531 26.052c.129-.3.307-.521.535-.664.243-.143.5-.214.771-.214.414 0 .778.136 1.092.407.314.257.471.57.471.942 0 .2-.05.4-.15.6L72.491 38.94c-.143.3-.335.521-.578.664-.243.157-.5.235-.77.235-.4 0-.75-.128-1.05-.385-.3-.257-.45-.57-.45-.942 0-.228.05-.443.15-.642l1.413-2.933-3.81-7.815a1.464 1.464 0 0 1-.129-.578c0-.385.164-.713.493-.985a1.815 1.815 0 0 1 1.156-.407c.285 0 .55.079.792.236.242.143.435.364.578.664l2.655 5.78 2.59-5.78z" fill="#4E60FF"/>
</svg>
