<svg width="14" height="13" viewBox="0 0 14 13" fill="none" xmlns="http://www.w3.org/2000/svg">
    <path opacity=".5" d="M6.41 2.232a.537.537 0 0 1 .963 0l1.006 2.039a.537.537 0 0 0 .403.293l2.251.329c.44.064.615.605.297.915L9.702 7.394a.537.537 0 0 0-.154.475l.384 2.239a.537.537 0 0 1-.779.566L7.141 9.616a.537.537 0 0 0-.5 0L4.63 10.674a.537.537 0 0 1-.779-.566l.384-2.24a.537.537 0 0 0-.154-.474L2.453 5.808a.537.537 0 0 1 .297-.915L5 4.564a.537.537 0 0 0 .404-.293L6.41 2.232z" fill="#C7C8D2"/>
</svg>
