<svg width="14" height="13" viewBox="0 0 14 13" fill="none" xmlns="http://www.w3.org/2000/svg">
    <path d="M6.753 2.232a.537.537 0 0 1 .963 0l1.006 2.039a.537.537 0 0 0 .403.293l2.25.329c.44.064.616.605.298.915l-1.628 1.586a.537.537 0 0 0-.155.475l.384 2.239a.537.537 0 0 1-.778.566L7.484 9.616a.537.537 0 0 0-.5 0l-2.011 1.058a.537.537 0 0 1-.779-.566l.384-2.24a.537.537 0 0 0-.154-.474L2.796 5.808a.537.537 0 0 1 .297-.915l2.25-.329a.537.537 0 0 0 .404-.293l1.006-2.039z" fill="#4E60FF"/>
</svg>
